<svg width="433" height="945" viewBox="0 0 433 945" fill="none" xmlns="http://www.w3.org/2000/svg">
<g clip-path="url(#clip0_444_535)">
<g filter="url(#filter0_d_444_535)">
<path fill-rule="evenodd" clip-rule="evenodd" d="M433 78C268.308 134.802 150 291.159 150 475.149C150 659.138 268.308 815.496 433 872.297V78Z" fill="#CA3E47"/>
</g>
<path fill-rule="evenodd" clip-rule="evenodd" d="M433 112.357C286.493 167.711 182.308 309.263 182.308 475.149C182.308 641.035 286.493 782.587 433 837.94V112.357Z" fill="#313131"/>
<g filter="url(#filter1_d_444_535)">
<path fill-rule="evenodd" clip-rule="evenodd" d="M433 218.612C341.486 267.586 279.231 364.097 279.231 475.149C279.231 586.2 341.486 682.711 433 731.685V218.612Z" fill="#CA3E47"/>
</g>
<path fill-rule="evenodd" clip-rule="evenodd" d="M433 255.943C360.05 301.632 311.538 382.725 311.538 475.149C311.538 567.573 360.05 648.666 433 694.355V255.943Z" fill="#313131"/>
</g>
<defs>
<filter id="filter0_d_444_535" x="25" y="-47" width="533" height="1044.3" filterUnits="userSpaceOnUse" color-interpolation-filters="sRGB">
<feFlood flood-opacity="0" result="BackgroundImageFix"/>
<feColorMatrix in="SourceAlpha" type="matrix" values="0 0 0 0 0 0 0 0 0 0 0 0 0 0 0 0 0 0 127 0" result="hardAlpha"/>
<feOffset/>
<feGaussianBlur stdDeviation="62.5"/>
<feColorMatrix type="matrix" values="0 0 0 0 0.792157 0 0 0 0 0.243137 0 0 0 0 0.278431 0 0 0 1 0"/>
<feBlend mode="normal" in2="BackgroundImageFix" result="effect1_dropShadow_444_535"/>
<feBlend mode="normal" in="SourceGraphic" in2="effect1_dropShadow_444_535" result="shape"/>
</filter>
<filter id="filter1_d_444_535" x="214.231" y="153.612" width="283.769" height="643.073" filterUnits="userSpaceOnUse" color-interpolation-filters="sRGB">
<feFlood flood-opacity="0" result="BackgroundImageFix"/>
<feColorMatrix in="SourceAlpha" type="matrix" values="0 0 0 0 0 0 0 0 0 0 0 0 0 0 0 0 0 0 127 0" result="hardAlpha"/>
<feOffset/>
<feGaussianBlur stdDeviation="32.5"/>
<feColorMatrix type="matrix" values="0 0 0 0 0.792157 0 0 0 0 0.243137 0 0 0 0 0.278431 0 0 0 1 0"/>
<feBlend mode="normal" in2="BackgroundImageFix" result="effect1_dropShadow_444_535"/>
<feBlend mode="normal" in="SourceGraphic" in2="effect1_dropShadow_444_535" result="shape"/>
</filter>
<clipPath id="clip0_444_535">
<rect width="433" height="945" fill="white"/>
</clipPath>
</defs>
</svg>
