<svg width="433" height="1130" viewBox="0 0 433 1130" fill="none" xmlns="http://www.w3.org/2000/svg">
<g clip-path="url(#clip0_601_488)">
<g filter="url(#filter0_d_601_488)">
<path fill-rule="evenodd" clip-rule="evenodd" d="M433 168C268.308 224.802 150 381.159 150 565.149C150 749.138 268.308 905.496 433 962.297V168Z" fill="#CA3E47"/>
</g>
<path fill-rule="evenodd" clip-rule="evenodd" d="M433 202.357C286.493 257.711 182.308 399.263 182.308 565.149C182.308 731.035 286.493 872.587 433 927.94V202.357Z" fill="#313131"/>
<g filter="url(#filter1_d_601_488)">
<path fill-rule="evenodd" clip-rule="evenodd" d="M433 308.612C341.486 357.586 279.231 454.097 279.231 565.149C279.231 676.2 341.486 772.711 433 821.685V308.612Z" fill="#CA3E47"/>
</g>
<path fill-rule="evenodd" clip-rule="evenodd" d="M433 345.943C360.05 391.632 311.539 472.725 311.539 565.149C311.539 657.573 360.05 738.666 433 784.355V345.943Z" fill="#313131"/>
</g>
<defs>
<filter id="filter0_d_601_488" x="25" y="43" width="533" height="1044.3" filterUnits="userSpaceOnUse" color-interpolation-filters="sRGB">
<feFlood flood-opacity="0" result="BackgroundImageFix"/>
<feColorMatrix in="SourceAlpha" type="matrix" values="0 0 0 0 0 0 0 0 0 0 0 0 0 0 0 0 0 0 127 0" result="hardAlpha"/>
<feOffset/>
<feGaussianBlur stdDeviation="62.5"/>
<feColorMatrix type="matrix" values="0 0 0 0 0.792157 0 0 0 0 0.243137 0 0 0 0 0.278431 0 0 0 1 0"/>
<feBlend mode="normal" in2="BackgroundImageFix" result="effect1_dropShadow_601_488"/>
<feBlend mode="normal" in="SourceGraphic" in2="effect1_dropShadow_601_488" result="shape"/>
</filter>
<filter id="filter1_d_601_488" x="214.231" y="243.612" width="283.769" height="643.073" filterUnits="userSpaceOnUse" color-interpolation-filters="sRGB">
<feFlood flood-opacity="0" result="BackgroundImageFix"/>
<feColorMatrix in="SourceAlpha" type="matrix" values="0 0 0 0 0 0 0 0 0 0 0 0 0 0 0 0 0 0 127 0" result="hardAlpha"/>
<feOffset/>
<feGaussianBlur stdDeviation="32.5"/>
<feColorMatrix type="matrix" values="0 0 0 0 0.792157 0 0 0 0 0.243137 0 0 0 0 0.278431 0 0 0 1 0"/>
<feBlend mode="normal" in2="BackgroundImageFix" result="effect1_dropShadow_601_488"/>
<feBlend mode="normal" in="SourceGraphic" in2="effect1_dropShadow_601_488" result="shape"/>
</filter>
<clipPath id="clip0_601_488">
<rect width="433" height="1130" fill="white"/>
</clipPath>
</defs>
</svg>
