<svg width="622" height="61" viewBox="0 0 622 61" fill="none" xmlns="http://www.w3.org/2000/svg">
<g filter="url(#filter0_d_492_560)">
<line x1="9.5" y1="6.50024" x2="538.5" y2="6.50024" stroke="#CA3E47" stroke-width="3" stroke-linecap="round"/>
</g>
<g filter="url(#filter1_d_492_560)">
<path d="M603.962 44.5898L538.501 6.50183" stroke="#CA3E47" stroke-width="3" stroke-linecap="round"/>
</g>
<path d="M606.615 47.6802C602.76 51.5928 599.336 55.2178 599.063 55.6581C598.82 56.2266 599.36 57.2501 600.626 58.4718C602.445 60.228 602.704 60.2768 603.808 59.1331L607.674 55.1304L610.384 52.3233L613.095 49.5162L616.961 45.5135C618.165 44.2659 618.137 44.1376 616.008 42.3846L613.762 40.5171L606.615 47.6802Z" fill="#414141"/>
<path d="M615.699 42.7565L615.699 42.7565L615.701 42.7579C616.236 43.1989 616.62 43.522 616.886 43.7826C617.161 44.0526 617.248 44.1993 617.271 44.2779L617.271 44.2788C617.28 44.3088 617.294 44.3523 617.208 44.4895C617.107 44.6526 616.922 44.8572 616.613 45.1775L612.747 49.1802L610.036 51.9873L607.325 54.7944L603.46 58.7971C603.182 59.085 602.996 59.2548 602.846 59.348C602.718 59.4271 602.651 59.4303 602.583 59.4162C602.481 59.3952 602.316 59.318 602.034 59.0966C601.758 58.8801 601.417 58.5638 600.962 58.1239C600.348 57.5319 599.934 57.0091 599.703 56.5878C599.488 56.1947 599.477 55.9755 599.498 55.8802C599.507 55.8688 599.517 55.8553 599.53 55.8394C599.566 55.7941 599.614 55.7356 599.676 55.6636C599.799 55.5198 599.966 55.3307 600.175 55.1009C600.591 54.6416 601.162 54.0277 601.847 53.3037C603.216 51.8563 605.033 49.9748 606.959 48.0208C606.959 48.0204 606.959 48.0201 606.96 48.0197L613.792 41.1714L615.699 42.7565Z" stroke="#313131" stroke-opacity="0.8"/>
<path d="M597.735 49.0592C597.83 48.3885 599.593 46.2768 602.786 42.9708C605.979 39.6648 606.781 38.8342 607.595 38.7063C608.409 38.5783 609.91 40.0271 609.91 40.0271L611.268 41.3378L605.788 47.0123L600.308 52.6868L598.95 51.376C598.199 50.6516 597.652 49.646 597.735 49.0592Z" fill="#414141"/>
<path d="M5.4925 6.80481C5.54336 3.67098 5.4925 0.825791 5.39079 0.537148C5.18736 0.207272 4.17025 0.00109863 2.54285 0.00109863C0.203479 0.00109863 5.57899e-05 0.0835676 5.57899e-05 0.990729L5.57899e-05 4.1658V6.39247V8.61914L5.57899e-05 11.7942C5.57899e-05 12.7838 0.101768 12.8251 2.64457 12.7014L5.33993 12.5777L5.4925 6.80481Z" fill="#414141"/>
<path d="M2.62164 12.2019L2.62027 12.202C1.98181 12.233 1.51248 12.2528 1.16125 12.251C0.797722 12.2491 0.619232 12.2228 0.531976 12.1927C0.528546 12.1915 0.525475 12.1904 0.522737 12.1893C0.509113 12.1363 0.500056 12.0315 0.500056 11.7942L0.500056 8.61914V6.39247V4.1658L0.500056 0.990729C0.500056 0.762156 0.516746 0.677788 0.530839 0.643507C0.530854 0.64347 0.530869 0.643433 0.530885 0.643395C0.536791 0.639447 0.550329 0.631524 0.57602 0.621494C0.671376 0.584268 0.850647 0.548532 1.19003 0.527171C1.52042 0.506377 1.95719 0.501099 2.54285 0.501099C3.33988 0.501099 3.96634 0.55192 4.40651 0.636448C4.62747 0.678878 4.7848 0.726721 4.8875 0.771896C4.90272 0.778592 4.91576 0.784801 4.92688 0.790427C4.92753 0.796615 4.92819 0.803129 4.92887 0.80998C4.93879 0.91033 4.94844 1.04859 4.9574 1.22316C4.97526 1.5713 4.98944 2.04554 4.99893 2.6124C5.01788 3.74452 5.01792 5.23271 4.99261 6.79415L4.85239 12.0995L2.62164 12.2019Z" stroke="#313131" stroke-opacity="0.8"/>
<path d="M9.35881 2.22066C9.65281 2.53371 9.7998 4.09892 9.7998 6.72066C9.7998 9.3424 9.79978 10.0011 9.4323 10.3761C9.06482 10.7511 7.52135 10.7511 7.52135 10.7511H6.12487V6.2511L6.12487 1.7511H7.52135C8.29308 1.7511 9.10157 1.94675 9.35881 2.22066Z" fill="#414141"/>
<defs>
<filter id="filter0_d_492_560" x="3" y="0.000244141" width="542" height="13" filterUnits="userSpaceOnUse" color-interpolation-filters="sRGB">
<feFlood flood-opacity="0" result="BackgroundImageFix"/>
<feColorMatrix in="SourceAlpha" type="matrix" values="0 0 0 0 0 0 0 0 0 0 0 0 0 0 0 0 0 0 127 0" result="hardAlpha"/>
<feOffset/>
<feGaussianBlur stdDeviation="2.5"/>
<feColorMatrix type="matrix" values="0 0 0 0 0.792157 0 0 0 0 0.243137 0 0 0 0 0.278431 0 0 0 1 0"/>
<feBlend mode="normal" in2="BackgroundImageFix" result="effect1_dropShadow_492_560"/>
<feBlend mode="normal" in="SourceGraphic" in2="effect1_dropShadow_492_560" result="shape"/>
</filter>
<filter id="filter1_d_492_560" x="532.001" y="0.00158691" width="78.4617" height="51.0885" filterUnits="userSpaceOnUse" color-interpolation-filters="sRGB">
<feFlood flood-opacity="0" result="BackgroundImageFix"/>
<feColorMatrix in="SourceAlpha" type="matrix" values="0 0 0 0 0 0 0 0 0 0 0 0 0 0 0 0 0 0 127 0" result="hardAlpha"/>
<feOffset/>
<feGaussianBlur stdDeviation="2.5"/>
<feColorMatrix type="matrix" values="0 0 0 0 0.792157 0 0 0 0 0.243137 0 0 0 0 0.278431 0 0 0 1 0"/>
<feBlend mode="normal" in2="BackgroundImageFix" result="effect1_dropShadow_492_560"/>
<feBlend mode="normal" in="SourceGraphic" in2="effect1_dropShadow_492_560" result="shape"/>
</filter>
</defs>
</svg>
