<svg width="14" height="131" viewBox="0 0 14 131" fill="none" xmlns="http://www.w3.org/2000/svg">
<g filter="url(#filter0_d_473_520)">
<line x1="7.00601" y1="124.495" x2="7.47399" y2="7.4939" stroke="#CA3E47" stroke-width="3" stroke-linecap="round"/>
</g>
<path d="M7.80371 5.48371C4.66988 5.52523 1.82469 5.48371 1.53605 5.40068C1.20617 5.23462 1 4.4043 1 3.07579C1 1.16606 1.08247 1 1.98963 1H5.1647H7.39137L9.61804 1H12.7931C13.7827 1 13.824 1.08303 13.7003 3.15882L13.5766 5.35917L7.80371 5.48371Z" fill="#414141"/>
<path d="M13.201 3.13076L13.2011 3.12908C13.2323 2.60675 13.2517 2.22925 13.2499 1.94901C13.2483 1.70108 13.229 1.5785 13.2125 1.52125C13.1465 1.50702 13.0296 1.5 12.7931 1.5H9.61804L7.39137 1.5H5.1647H1.98963C1.76021 1.5 1.66047 1.51333 1.61138 1.5298C1.61003 1.53026 1.60918 1.53032 1.60867 1.53018C1.60829 1.53157 1.60743 1.53386 1.6057 1.53746C1.58051 1.59014 1.54654 1.71238 1.52558 1.98422C1.50534 2.24675 1.5 2.59736 1.5 3.07579C1.5 3.7194 1.55041 4.21693 1.63104 4.55966C1.67145 4.73148 1.71546 4.84679 1.75328 4.91699C1.75538 4.92087 1.75739 4.92451 1.75933 4.92792C1.77145 4.92903 1.78495 4.9302 1.79991 4.93141C1.90228 4.93967 2.04214 4.94762 2.21737 4.95496C2.567 4.9696 3.04241 4.9812 3.60977 4.98895C4.74317 5.00444 6.23256 5.00447 7.79501 4.98378L13.1033 4.86926L13.201 3.13076Z" stroke="#313131" stroke-opacity="0.8"/>
<path d="M3.21957 8.64C3.53261 8.88 5.09783 9 7.71956 9C10.3413 9 11 8.99998 11.375 8.69999C11.75 8.4 11.75 7.14 11.75 7.14L11.75 6H7.25L2.75 6V7.14C2.75 7.77 2.94565 8.43 3.21957 8.64Z" fill="#414141"/>
<defs>
<filter id="filter0_d_473_520" x="0.506012" y="0.993896" width="13.468" height="130.002" filterUnits="userSpaceOnUse" color-interpolation-filters="sRGB">
<feFlood flood-opacity="0" result="BackgroundImageFix"/>
<feColorMatrix in="SourceAlpha" type="matrix" values="0 0 0 0 0 0 0 0 0 0 0 0 0 0 0 0 0 0 127 0" result="hardAlpha"/>
<feOffset/>
<feGaussianBlur stdDeviation="2.5"/>
<feColorMatrix type="matrix" values="0 0 0 0 0.792157 0 0 0 0 0.243137 0 0 0 0 0.278431 0 0 0 1 0"/>
<feBlend mode="normal" in2="BackgroundImageFix" result="effect1_dropShadow_473_520"/>
<feBlend mode="normal" in="SourceGraphic" in2="effect1_dropShadow_473_520" result="shape"/>
</filter>
</defs>
</svg>
