<svg width="702" height="49" viewBox="0 0 702 49" fill="none" xmlns="http://www.w3.org/2000/svg">
<g filter="url(#filter0_d_464_509)">
<line x1="693" y1="7" x2="693" y2="39" stroke="#CA3E47" stroke-width="4" stroke-linecap="round"/>
</g>
<path d="M692.928 43.5484C697.107 43.5066 700.9 43.5484 701.285 43.632C701.725 43.7992 702 44.6355 702 45.9734C702 47.8967 701.89 48.0639 700.68 48.0639H696.447H693.478H690.509H686.276C684.956 48.0639 684.901 47.9803 685.066 45.8898L685.231 43.6738L692.928 43.5484Z" fill="#414141"/>
<path d="M685.565 45.9269L685.565 45.9269L685.565 45.9291C685.523 46.4562 685.498 46.8311 685.5 47.1071C685.502 47.3764 685.533 47.4783 685.548 47.5103C685.557 47.5144 685.577 47.5217 685.612 47.5294C685.739 47.5566 685.934 47.5639 686.276 47.5639H690.509H693.478H696.447H700.68C700.986 47.5639 701.161 47.5516 701.274 47.523C701.353 47.5029 701.364 47.4852 701.37 47.4748C701.37 47.4739 701.371 47.4731 701.371 47.4724C701.397 47.432 701.439 47.3263 701.467 47.0606C701.493 46.803 701.5 46.4555 701.5 45.9734C701.5 45.3324 701.433 44.8439 701.33 44.5124C701.248 44.2481 701.164 44.1483 701.127 44.1146C701.126 44.1146 701.126 44.1145 701.125 44.1144C701.084 44.1104 701.028 44.1061 700.957 44.1018C700.815 44.0931 700.624 44.085 700.389 44.0775C699.919 44.0627 699.282 44.051 698.524 44.0431C697.01 44.0275 695.021 44.0275 692.935 44.0483L685.696 44.1663L685.565 45.9269Z" stroke="#313131" stroke-opacity="0.8"/>
<path d="M698.374 39.4532C697.957 39.1511 695.87 39 692.374 39C688.878 39 688 39 687.5 39.3777C687 39.7553 687 41.3415 687 41.3415V42.7766H693H699V41.3415C699 40.5484 698.739 39.7176 698.374 39.4532Z" fill="#414141"/>
<g filter="url(#filter1_d_464_509)">
<line x1="692.5" y1="6.5" x2="8.5" y2="6.5" stroke="#CA3E47" stroke-width="3" stroke-linecap="round"/>
</g>
<path d="M4.48371 5.94629C4.52523 9.08012 4.48371 11.9253 4.40068 12.214C4.23462 12.5438 3.4043 12.75 2.07579 12.75C0.166063 12.75 0 12.6675 0 11.7604V8.5853L0 6.35863V4.13196L0 0.956897C0 -0.0327336 0.0830317 -0.0739682 2.15882 0.0497356L4.35917 0.17344L4.48371 5.94629Z" fill="#414141"/>
<path d="M2.13076 0.54895L2.12908 0.54885C1.60675 0.517723 1.22925 0.498307 0.949008 0.500115C0.701078 0.501714 0.578497 0.520966 0.521247 0.537521C0.507019 0.603524 0.5 0.720417 0.5 0.956897L0.5 4.13196V6.35863L0.5 8.5853V11.7604C0.5 11.9898 0.513329 12.0895 0.529804 12.1386C0.530257 12.14 0.530318 12.1408 0.530177 12.1413C0.531571 12.1417 0.533857 12.1426 0.537461 12.1443C0.590139 12.1695 0.712384 12.2035 0.984219 12.2244C1.24675 12.2447 1.59736 12.25 2.07579 12.25C2.7194 12.25 3.21693 12.1996 3.55966 12.119C3.73148 12.0785 3.84679 12.0345 3.91699 11.9967C3.92087 11.9946 3.92451 11.9926 3.92792 11.9907C3.92903 11.9785 3.9302 11.9651 3.93141 11.9501C3.93967 11.8477 3.94762 11.7079 3.95496 11.5326C3.9696 11.183 3.9812 10.7076 3.98895 10.1402C4.00444 9.00683 4.00447 7.51744 3.98378 5.95499L3.86926 0.646686L2.13076 0.54895Z" stroke="#313131" stroke-opacity="0.8"/>
<path d="M7.64 10.5304C7.88 10.2174 8 8.65217 8 6.03044C8 3.4087 7.99998 2.75001 7.69999 2.375C7.4 1.99999 6.14 2 6.14 2H5L5 6.5L5 11H6.14C6.77 11 7.43 10.8043 7.64 10.5304Z" fill="#414141"/>
<defs>
<filter id="filter0_d_464_509" x="686" y="0" width="14" height="46" filterUnits="userSpaceOnUse" color-interpolation-filters="sRGB">
<feFlood flood-opacity="0" result="BackgroundImageFix"/>
<feColorMatrix in="SourceAlpha" type="matrix" values="0 0 0 0 0 0 0 0 0 0 0 0 0 0 0 0 0 0 127 0" result="hardAlpha"/>
<feOffset/>
<feGaussianBlur stdDeviation="2.5"/>
<feColorMatrix type="matrix" values="0 0 0 0 0.792157 0 0 0 0 0.243137 0 0 0 0 0.278431 0 0 0 1 0"/>
<feBlend mode="normal" in2="BackgroundImageFix" result="effect1_dropShadow_464_509"/>
<feBlend mode="normal" in="SourceGraphic" in2="effect1_dropShadow_464_509" result="shape"/>
</filter>
<filter id="filter1_d_464_509" x="2" y="0" width="697" height="13" filterUnits="userSpaceOnUse" color-interpolation-filters="sRGB">
<feFlood flood-opacity="0" result="BackgroundImageFix"/>
<feColorMatrix in="SourceAlpha" type="matrix" values="0 0 0 0 0 0 0 0 0 0 0 0 0 0 0 0 0 0 127 0" result="hardAlpha"/>
<feOffset/>
<feGaussianBlur stdDeviation="2.5"/>
<feColorMatrix type="matrix" values="0 0 0 0 0.792157 0 0 0 0 0.243137 0 0 0 0 0.278431 0 0 0 1 0"/>
<feBlend mode="normal" in2="BackgroundImageFix" result="effect1_dropShadow_464_509"/>
<feBlend mode="normal" in="SourceGraphic" in2="effect1_dropShadow_464_509" result="shape"/>
</filter>
</defs>
</svg>
