<svg width="618" height="70" viewBox="0 0 618 70" fill="none" xmlns="http://www.w3.org/2000/svg">
<g filter="url(#filter0_d_492_560)">
<line x1="9.5" y1="7.5" x2="520.5" y2="7.5" stroke="#CA3E47" stroke-width="3" stroke-linecap="round"/>
</g>
<g filter="url(#filter1_d_492_560)">
<path d="M597.841 52.3315L520.574 7.37447" stroke="#CA3E47" stroke-width="3" stroke-linecap="round"/>
</g>
<path d="M602.615 56.6802C598.76 60.5928 595.336 64.2178 595.063 64.6581C594.82 65.2266 595.36 66.2501 596.626 67.4718C598.445 69.228 598.704 69.2768 599.808 68.1331L603.674 64.1304L606.384 61.3233L609.095 58.5162L612.961 54.5135C614.165 53.2659 614.137 53.1376 612.008 51.3846L609.762 49.5171L602.615 56.6802Z" fill="#414141"/>
<path d="M611.699 51.7565L611.699 51.7565L611.701 51.7579C612.236 52.1989 612.62 52.522 612.886 52.7826C613.161 53.0526 613.248 53.1993 613.271 53.2779L613.271 53.2788C613.28 53.3088 613.294 53.3523 613.208 53.4895C613.107 53.6526 612.922 53.8572 612.613 54.1775L608.747 58.1802L606.036 60.9873L603.325 63.7944L599.46 67.7971C599.182 68.085 598.996 68.2548 598.846 68.348C598.718 68.4271 598.651 68.4303 598.583 68.4162C598.481 68.3952 598.316 68.318 598.034 68.0966C597.758 67.8801 597.417 67.5638 596.962 67.1239C596.348 66.5319 595.934 66.0091 595.703 65.5878C595.488 65.1947 595.477 64.9755 595.498 64.8802C595.507 64.8688 595.517 64.8553 595.53 64.8394C595.566 64.7941 595.614 64.7356 595.676 64.6636C595.799 64.5198 595.966 64.3307 596.175 64.1009C596.591 63.6416 597.162 63.0277 597.847 62.3037C599.216 60.8563 601.033 58.9748 602.959 57.0208C602.959 57.0204 602.959 57.0201 602.96 57.0197L609.792 50.1714L611.699 51.7565Z" stroke="#313131" stroke-opacity="0.8"/>
<path d="M593.735 58.0592C593.83 57.3885 595.593 55.2768 598.786 51.9708C601.979 48.6648 602.781 47.8342 603.595 47.7063C604.409 47.5783 605.91 49.0271 605.91 49.0271L607.268 50.3378L601.788 56.0123L596.308 61.6868L594.95 60.376C594.199 59.6516 593.652 58.646 593.735 58.0592Z" fill="#414141"/>
<path d="M5.4925 7.81153C5.54336 4.6777 5.4925 1.83251 5.39079 1.54386C5.18736 1.21399 4.17025 1.00781 2.54285 1.00781C0.203479 1.00781 5.57899e-05 1.09028 5.57899e-05 1.99744L5.57899e-05 5.17251V7.39918V9.62585L5.57899e-05 12.8009C5.57899e-05 13.7905 0.101768 13.8318 2.64457 13.7081L5.33993 13.5844L5.4925 7.81153Z" fill="#414141"/>
<path d="M2.62164 13.2086L2.62027 13.2087C1.98181 13.2397 1.51248 13.2595 1.16125 13.2577C0.797722 13.2558 0.619232 13.2295 0.531976 13.1994C0.528546 13.1982 0.525475 13.1971 0.522737 13.196C0.509113 13.143 0.500056 13.0382 0.500056 12.8009L0.500056 9.62585V7.39918V5.17251L0.500056 1.99744C0.500056 1.76887 0.516746 1.6845 0.530839 1.65022C0.530854 1.65018 0.530869 1.65015 0.530885 1.65011C0.536791 1.64616 0.550329 1.63824 0.57602 1.62821C0.671376 1.59098 0.850647 1.55525 1.19003 1.53389C1.52042 1.51309 1.95719 1.50781 2.54285 1.50781C3.33988 1.50781 3.96634 1.55863 4.40651 1.64316C4.62747 1.68559 4.7848 1.73343 4.8875 1.77861C4.90272 1.78531 4.91576 1.79151 4.92688 1.79714C4.92753 1.80333 4.92819 1.80984 4.92887 1.81669C4.93879 1.91704 4.94844 2.0553 4.9574 2.22988C4.97526 2.57801 4.98944 3.05225 4.99893 3.61912C5.01788 4.75124 5.01792 6.23942 4.99261 7.80087L4.85239 13.1062L2.62164 13.2086Z" stroke="#313131" stroke-opacity="0.8"/>
<path d="M9.35881 3.22738C9.65281 3.54042 9.7998 5.10564 9.7998 7.72738C9.7998 10.3491 9.79978 11.0078 9.4323 11.3828C9.06482 11.7578 7.52135 11.7578 7.52135 11.7578H6.12487V7.25781L6.12487 2.75781H7.52135C8.29308 2.75781 9.10157 2.95346 9.35881 3.22738Z" fill="#414141"/>
<defs>
<filter id="filter0_d_492_560" x="3" y="1" width="524" height="13" filterUnits="userSpaceOnUse" color-interpolation-filters="sRGB">
<feFlood flood-opacity="0" result="BackgroundImageFix"/>
<feColorMatrix in="SourceAlpha" type="matrix" values="0 0 0 0 0 0 0 0 0 0 0 0 0 0 0 0 0 0 127 0" result="hardAlpha"/>
<feOffset/>
<feGaussianBlur stdDeviation="2.5"/>
<feColorMatrix type="matrix" values="0 0 0 0 0.792157 0 0 0 0 0.243137 0 0 0 0 0.278431 0 0 0 1 0"/>
<feBlend mode="normal" in2="BackgroundImageFix" result="effect1_dropShadow_492_560"/>
<feBlend mode="normal" in="SourceGraphic" in2="effect1_dropShadow_492_560" result="shape"/>
</filter>
<filter id="filter1_d_492_560" x="514.073" y="0.874268" width="90.2675" height="57.9575" filterUnits="userSpaceOnUse" color-interpolation-filters="sRGB">
<feFlood flood-opacity="0" result="BackgroundImageFix"/>
<feColorMatrix in="SourceAlpha" type="matrix" values="0 0 0 0 0 0 0 0 0 0 0 0 0 0 0 0 0 0 127 0" result="hardAlpha"/>
<feOffset/>
<feGaussianBlur stdDeviation="2.5"/>
<feColorMatrix type="matrix" values="0 0 0 0 0.792157 0 0 0 0 0.243137 0 0 0 0 0.278431 0 0 0 1 0"/>
<feBlend mode="normal" in2="BackgroundImageFix" result="effect1_dropShadow_492_560"/>
<feBlend mode="normal" in="SourceGraphic" in2="effect1_dropShadow_492_560" result="shape"/>
</filter>
</defs>
</svg>
