<svg width="117" height="266" viewBox="0 0 117 266" fill="none" xmlns="http://www.w3.org/2000/svg">
<g filter="url(#filter0_d_477_525)">
<line x1="6.5" y1="9.5" x2="105.5" y2="9.50001" stroke="#CA3E47" stroke-width="3" stroke-linecap="round"/>
</g>
<path d="M111.022 9.07162C110.966 4.89318 111.022 1.09959 111.132 0.714733C111.354 0.274897 112.461 0 114.232 0C116.779 0 117 0.109959 117 1.31951V5.55293V8.52182V11.4907V15.7241C117 17.0436 116.889 17.0986 114.122 16.9337L111.188 16.7687L111.022 9.07162Z" fill="#414141"/>
<path d="M114.15 16.4345L114.151 16.4346C114.847 16.476 115.356 16.5023 115.736 16.4998C116.129 16.4973 116.316 16.4625 116.404 16.4251C116.422 16.4176 116.431 16.4118 116.435 16.4091C116.437 16.4077 116.438 16.4068 116.438 16.4065L116.438 16.406L116.439 16.4044C116.44 16.4033 116.442 16.4012 116.443 16.3977C116.447 16.3907 116.452 16.3777 116.459 16.3559C116.49 16.2472 116.5 16.0694 116.5 15.7241V11.4907V8.52182V5.55293V1.31951C116.5 1.01449 116.483 0.856331 116.452 0.76214C116.434 0.708752 116.419 0.687647 116.355 0.657248C116.256 0.60972 116.067 0.56286 115.701 0.534601C115.343 0.507057 114.87 0.5 114.232 0.5C113.367 0.5 112.69 0.567593 112.216 0.679142C111.978 0.735023 111.809 0.797924 111.698 0.857658C111.653 0.882082 111.623 0.90262 111.605 0.91753C111.601 0.949135 111.597 0.993448 111.592 1.05315C111.581 1.1927 111.57 1.38157 111.56 1.61618C111.541 2.08458 111.525 2.7202 111.515 3.47741C111.494 4.99052 111.494 6.97816 111.522 9.06291L111.678 16.2955L114.15 16.4345Z" stroke="#313131" stroke-opacity="0.8"/>
<path d="M105.6 3.62609C105.2 4.04348 105 6.13043 105 9.62609C105 13.1217 105 14 105.5 14.5C106 15 108.1 15 108.1 15H110V9V3H108.1C107.05 3 105.95 3.26087 105.6 3.62609Z" fill="#414141"/>
<g filter="url(#filter1_d_477_525)">
<line x1="6.5" y1="258.5" x2="6.50001" y2="9.5" stroke="#CA3E47" stroke-width="3" stroke-linecap="round"/>
</g>
<path d="M5.94629 261.283C9.08012 261.244 11.9253 261.283 12.214 261.361C12.5438 261.516 12.75 262.291 12.75 263.531C12.75 265.314 12.6675 265.469 11.7604 265.469H8.5853H6.35863H4.13196H0.956897C-0.0327336 265.469 -0.0739682 265.392 0.0497356 263.454L0.17344 261.399L5.94629 261.283Z" fill="#414141"/>
<path d="M0.548832 263.484L0.548835 263.484L0.54872 263.486C0.517563 263.974 0.498324 264.324 0.500113 264.583C0.501549 264.791 0.517436 264.898 0.530432 264.949C0.60057 264.963 0.721144 264.969 0.956897 264.969H4.13196H6.35863H8.5853H11.7604C11.9899 264.969 12.0943 264.957 12.1482 264.94C12.164 264.935 12.1483 264.945 12.1503 264.941C12.1707 264.901 12.2039 264.797 12.2246 264.545C12.2446 264.303 12.25 263.978 12.25 263.531C12.25 262.933 12.1998 262.474 12.1208 262.161C12.0813 262.004 12.0389 261.901 12.0038 261.841C12.0029 261.839 12.0019 261.837 12.001 261.836C11.9869 261.835 11.9709 261.833 11.9527 261.832C11.8498 261.824 11.7094 261.817 11.534 261.81C11.1839 261.796 10.7082 261.785 10.1407 261.778C9.0069 261.764 7.51716 261.764 5.95441 261.783L0.644804 261.89L0.548832 263.484Z" stroke="#313131" stroke-opacity="0.8"/>
<path d="M10.5304 258.336C10.2174 258.112 8.65217 258 6.03044 258C3.4087 258 2.75001 258 2.375 258.28C1.99999 258.56 2 259.737 2 259.737V260.801H6.5H11V259.737C11 259.148 10.8043 258.532 10.5304 258.336Z" fill="#414141"/>
<defs>
<filter id="filter0_d_477_525" x="0" y="3" width="112" height="13" filterUnits="userSpaceOnUse" color-interpolation-filters="sRGB">
<feFlood flood-opacity="0" result="BackgroundImageFix"/>
<feColorMatrix in="SourceAlpha" type="matrix" values="0 0 0 0 0 0 0 0 0 0 0 0 0 0 0 0 0 0 127 0" result="hardAlpha"/>
<feOffset/>
<feGaussianBlur stdDeviation="2.5"/>
<feColorMatrix type="matrix" values="0 0 0 0 0.792157 0 0 0 0 0.243137 0 0 0 0 0.278431 0 0 0 1 0"/>
<feBlend mode="normal" in2="BackgroundImageFix" result="effect1_dropShadow_477_525"/>
<feBlend mode="normal" in="SourceGraphic" in2="effect1_dropShadow_477_525" result="shape"/>
</filter>
<filter id="filter1_d_477_525" x="0" y="3" width="13" height="262" filterUnits="userSpaceOnUse" color-interpolation-filters="sRGB">
<feFlood flood-opacity="0" result="BackgroundImageFix"/>
<feColorMatrix in="SourceAlpha" type="matrix" values="0 0 0 0 0 0 0 0 0 0 0 0 0 0 0 0 0 0 127 0" result="hardAlpha"/>
<feOffset/>
<feGaussianBlur stdDeviation="2.5"/>
<feColorMatrix type="matrix" values="0 0 0 0 0.792157 0 0 0 0 0.243137 0 0 0 0 0.278431 0 0 0 1 0"/>
<feBlend mode="normal" in2="BackgroundImageFix" result="effect1_dropShadow_477_525"/>
<feBlend mode="normal" in="SourceGraphic" in2="effect1_dropShadow_477_525" result="shape"/>
</filter>
</defs>
</svg>
