<svg width="120" height="109" viewBox="0 0 120 109" fill="none" xmlns="http://www.w3.org/2000/svg">
<g filter="url(#filter0_d_495_489)">
<path d="M93.0106 8.0002C93.0106 8.0002 56.9665 3.38296 37.0106 12.4999C28.7799 16.2602 23.3247 18.0749 17.5 25.0001C12.4962 30.9493 10.6837 35.4108 8.99998 43.0001C7.35008 50.437 6.61377 55.2722 8.99998 62.5065C11.7795 70.9334 16.3081 74.8028 23.5001 80.0001C40.8962 92.5712 41.6856 90.4764 60 93.5C76.2242 96.1785 91.9894 94.5 93.5 94.5" stroke="#CA3E47" stroke-width="3" stroke-linecap="round"/>
</g>
<path d="M98.9606 93.7189C98.9076 99.2115 98.9642 104.198 99.0741 104.704C99.2939 105.282 100.392 105.644 102.149 105.645C104.674 105.645 104.893 105.501 104.893 103.911L104.891 98.3458L104.889 94.4432L104.888 90.5405L104.886 84.9756C104.886 83.241 104.776 83.1687 102.031 83.3848L99.1219 83.6009L98.9606 93.7189Z" fill="#414141"/>
<path d="M102.066 83.871L102.066 83.871L102.068 83.8708C102.759 83.8165 103.259 83.7824 103.631 83.7857C104.017 83.7891 104.184 83.8343 104.258 83.8759L104.258 83.8761C104.288 83.8925 104.326 83.9141 104.36 84.0693C104.4 84.2554 104.409 84.5298 104.409 84.9754L104.411 90.5404L104.412 94.443L104.413 98.3457L104.415 103.911C104.415 104.311 104.4 104.56 104.357 104.73C104.321 104.873 104.276 104.922 104.216 104.96C104.126 105.017 103.952 105.076 103.595 105.113C103.246 105.148 102.781 105.157 102.148 105.157C101.296 105.157 100.634 105.068 100.174 104.925C99.7458 104.791 99.5853 104.64 99.5345 104.558C99.5328 104.545 99.5311 104.529 99.5292 104.51C99.5236 104.452 99.5178 104.377 99.512 104.282C99.5005 104.094 99.4896 103.841 99.4797 103.531C99.4599 102.912 99.4443 102.073 99.4336 101.077C99.4124 99.0843 99.4115 96.4685 99.438 93.7256C99.438 93.725 99.438 93.7245 99.438 93.724L99.5921 84.0547L102.066 83.871Z" stroke="#313131" stroke-opacity="0.8"/>
<path d="M92.8116 101.549C92.4146 101 92.2153 98.2559 92.2138 93.6597C92.2122 89.0634 92.2119 87.9086 92.7077 87.2513C93.2036 86.594 95.287 86.5945 95.287 86.5945L97.1721 86.595L97.1747 94.4842L97.1773 102.373L95.2922 102.373C94.2505 102.373 93.159 102.029 92.8116 101.549Z" fill="#414141"/>
<path d="M92.1107 12.4783C91.7107 12.1304 91.5109 10.3913 91.5113 7.47826C91.5116 4.56522 91.5118 3.83334 92.0118 3.41667C92.5118 2.99999 94.6118 3 94.6118 3H96.5118L96.5112 8L96.5106 13H94.6106C93.5606 13 92.4606 12.7826 92.1107 12.4783Z" fill="#414141"/>
<defs>
<filter id="filter0_d_495_489" x="0.974121" y="0.331055" width="99.0259" height="101.187" filterUnits="userSpaceOnUse" color-interpolation-filters="sRGB">
<feFlood flood-opacity="0" result="BackgroundImageFix"/>
<feColorMatrix in="SourceAlpha" type="matrix" values="0 0 0 0 0 0 0 0 0 0 0 0 0 0 0 0 0 0 127 0" result="hardAlpha"/>
<feOffset/>
<feGaussianBlur stdDeviation="2.5"/>
<feColorMatrix type="matrix" values="0 0 0 0 0.792157 0 0 0 0 0.243137 0 0 0 0 0.278431 0 0 0 1 0"/>
<feBlend mode="normal" in2="BackgroundImageFix" result="effect1_dropShadow_495_489"/>
<feBlend mode="normal" in="SourceGraphic" in2="effect1_dropShadow_495_489" result="shape"/>
</filter>
</defs>
</svg>
