<svg width="751" height="60" viewBox="0 0 751 60" fill="none" xmlns="http://www.w3.org/2000/svg">
<g filter="url(#filter0_d_495_495)">
<line x1="25.5106" y1="30" x2="725.511" y2="30.0001" stroke="#CA3E47" stroke-width="10"/>
</g>
<path d="M726.175 38.939C728.632 39.0961 730.864 38.9395 731.09 38.6259C731.349 37.9986 731.511 34.8618 731.511 29.843C731.511 22.6285 731.446 22.0011 730.735 22.001L728.244 22.0008L726.498 22.0006L724.752 22.0004L722.261 22.0001C721.485 22 721.453 22.3137 721.55 30.1556L721.647 38.468L726.175 38.939Z" fill="#414141"/>
<path d="M722.031 30.15L722.031 30.1497C721.982 26.213 721.967 24.2071 722.057 23.1792C722.079 22.9262 722.107 22.7497 722.137 22.6269C722.155 22.5535 722.171 22.5088 722.183 22.4834C722.2 22.4822 722.225 22.4812 722.261 22.4812L724.752 22.4815L726.498 22.4817L728.244 22.4819L730.735 22.4822C730.743 22.4822 730.751 22.4823 730.757 22.4826C730.799 22.5643 730.862 22.773 730.911 23.2641C731.013 24.2928 731.03 26.2228 731.03 29.843C731.03 32.3484 730.989 34.3787 730.917 35.8577C730.881 36.5978 730.837 37.1944 730.787 37.6411C730.752 37.9578 730.716 38.1736 730.685 38.3065C730.634 38.3223 730.566 38.3398 730.477 38.3576C730.227 38.4079 729.874 38.4502 729.438 38.4789C728.571 38.5359 727.423 38.5363 726.215 38.4594L722.123 38.0338L722.031 30.15ZM730.77 38.2746C730.774 38.2723 730.776 38.2712 730.776 38.2713C730.776 38.2713 730.774 38.2725 730.77 38.2746Z" stroke="#313131" stroke-opacity="0.8"/>
<path d="M24.8469 21.0622C22.389 20.9051 20.1574 21.0617 19.9311 21.3753C19.6723 22.0027 19.5106 25.1394 19.5106 30.1582C19.5106 37.3727 19.5753 38.0001 20.2868 38.0002L22.777 38.0005L24.5235 38.0007L26.2699 38.0009L28.7601 38.0011C29.5363 38.0012 29.5686 37.6876 29.4716 29.8457L29.3746 21.5332L24.8469 21.0622Z" fill="#414141"/>
<path d="M28.9907 29.8512L28.9907 29.8516C29.0394 33.7882 29.0545 35.7941 28.9642 36.822C28.942 37.075 28.9146 37.2515 28.8846 37.3744C28.8668 37.4477 28.8502 37.4924 28.8388 37.5178C28.8216 37.519 28.7964 37.52 28.7601 37.52L26.2699 37.5197L24.5235 37.5195L22.777 37.5193L20.2868 37.519C20.2781 37.519 20.2707 37.5189 20.2645 37.5186C20.2225 37.437 20.1593 37.2282 20.1105 36.7371C20.0084 35.7084 19.9916 33.7784 19.9916 30.1583C19.9916 27.6528 20.032 25.6226 20.1042 24.1435C20.1403 23.4034 20.1842 22.8068 20.2342 22.3601C20.2696 22.0434 20.3058 21.8276 20.3363 21.6947C20.3872 21.6789 20.4557 21.6615 20.5441 21.6437C20.794 21.5933 21.1474 21.551 21.5837 21.5223C22.4508 21.4654 23.5984 21.4649 24.8067 21.5418L28.8987 21.9675L28.9907 29.8512ZM20.2512 21.7266C20.2476 21.7289 20.2454 21.73 20.2453 21.73C20.2451 21.7299 20.247 21.7287 20.2512 21.7266Z" stroke="#313131" stroke-opacity="0.8"/>
<defs>
<filter id="filter0_d_495_495" x="0.51062" y="0" width="750" height="60" filterUnits="userSpaceOnUse" color-interpolation-filters="sRGB">
<feFlood flood-opacity="0" result="BackgroundImageFix"/>
<feColorMatrix in="SourceAlpha" type="matrix" values="0 0 0 0 0 0 0 0 0 0 0 0 0 0 0 0 0 0 127 0" result="hardAlpha"/>
<feOffset/>
<feGaussianBlur stdDeviation="12.5"/>
<feComposite in2="hardAlpha" operator="out"/>
<feColorMatrix type="matrix" values="0 0 0 0 0.792157 0 0 0 0 0.243137 0 0 0 0 0.278431 0 0 0 1 0"/>
<feBlend mode="normal" in2="BackgroundImageFix" result="effect1_dropShadow_495_495"/>
<feBlend mode="normal" in="SourceGraphic" in2="effect1_dropShadow_495_495" result="shape"/>
</filter>
</defs>
</svg>
