<svg width="30" height="30" viewBox="0 0 30 30" fill="none" xmlns="http://www.w3.org/2000/svg">
<path d="M15 0L23.8168 2.86475L29.2658 10.3647V19.6353L23.8168 27.1353L15 30L6.18322 27.1353L0.734152 19.6353V10.3647L6.18322 2.86475L15 0Z" fill="#D2D2D2" fill-opacity="0.6"/>
<path d="M20.5 21.0339C20.5 21.3101 20.7239 21.5339 21 21.5339C21.2761 21.5339 21.5 21.3101 21.5 21.0339H20.5ZM12 21.0339C12 21.3101 12.2239 21.5339 12.5 21.5339C12.7761 21.5339 13 21.3101 13 21.0339H12ZM20.0181 17.8124L19.7636 18.2428L20.0181 17.8124ZM20.7215 18.5158L21.1519 18.2613L20.7215 18.5158ZM13.4819 17.8124L13.7364 18.2428L13.4819 17.8124ZM12.7785 18.5158L13.2089 18.7703L12.7785 18.5158ZM8.5 19.5339C8.5 19.81 8.72386 20.0339 9 20.0339C9.27614 20.0339 9.5 19.81 9.5 19.5339H8.5ZM12.5 16.5339C12.7761 16.5339 13 16.31 13 16.0339C13 15.7578 12.7761 15.5339 12.5 15.5339V16.5339ZM9.20394 17.154L9.65296 17.374L9.20394 17.154ZM10.1201 16.2378L10.3401 16.6869L10.1201 16.2378ZM14.3059 10.32C14.4587 10.5499 14.7691 10.6124 14.9991 10.4595C15.229 10.3066 15.2915 9.99626 15.1386 9.7663L14.3059 10.32ZM11.8334 14.0054C12.0937 14.0974 12.3794 13.9609 12.4714 13.7006C12.5634 13.4402 12.427 13.1546 12.1666 13.0625L11.8334 14.0054ZM15.86 18.0339H17.64V17.0339H15.86V18.0339ZM20.5 20.8939V21.0339H21.5V20.8939H20.5ZM13 21.0339V20.8939H12V21.0339H13ZM17.64 18.0339C18.2851 18.0339 18.7348 18.0344 19.0832 18.0666C19.4245 18.0981 19.6181 18.1568 19.7636 18.2428L20.2726 17.3821C19.9471 17.1896 19.5874 17.1089 19.1752 17.0708C18.7702 17.0334 18.2663 17.0339 17.64 17.0339V18.0339ZM21.5 20.8939C21.5 20.2676 21.5005 19.7637 21.4631 19.3587C21.425 18.9465 21.3443 18.5868 21.1519 18.2613L20.2911 18.7703C20.3771 18.9158 20.4358 19.1094 20.4673 19.4507C20.4995 19.7991 20.5 20.2488 20.5 20.8939H21.5ZM19.7636 18.2428C19.981 18.3714 20.1625 18.5529 20.2911 18.7703L21.1519 18.2613C20.9375 17.8988 20.6351 17.5964 20.2726 17.3821L19.7636 18.2428ZM15.86 17.0339C15.2337 17.0339 14.7298 17.0334 14.3248 17.0708C13.9126 17.1089 13.5529 17.1896 13.2274 17.3821L13.7364 18.2428C13.8819 18.1568 14.0755 18.0981 14.4168 18.0666C14.7652 18.0344 15.2149 18.0339 15.86 18.0339V17.0339ZM13 20.8939C13 20.2488 13.0005 19.7991 13.0327 19.4507C13.0642 19.1094 13.1229 18.9158 13.2089 18.7703L12.3481 18.2613C12.1557 18.5868 12.075 18.9465 12.0369 19.3587C11.9995 19.7637 12 20.2676 12 20.8939H13ZM13.2274 17.3821C12.8649 17.5964 12.5625 17.8988 12.3481 18.2613L13.2089 18.7703C13.3375 18.5529 13.519 18.3714 13.7364 18.2428L13.2274 17.3821ZM9.5 19.5339V19.1939H8.5V19.5339H9.5ZM12.16 16.5339H12.5V15.5339H12.16V16.5339ZM9.5 19.1939C9.5 18.6447 9.50036 18.2619 9.52394 17.9636C9.54708 17.6707 9.59024 17.502 9.65296 17.374L8.75493 16.934C8.61371 17.2223 8.5549 17.5323 8.52705 17.8848C8.49964 18.2317 8.5 18.6607 8.5 19.1939H9.5ZM12.16 15.5339C11.6268 15.5339 11.1978 15.5335 10.8509 15.5609C10.4985 15.5888 10.1884 15.6476 9.90015 15.7888L10.3401 16.6869C10.4681 16.6241 10.6368 16.581 10.9297 16.5578C11.228 16.5343 11.6108 16.5339 12.16 16.5339V15.5339ZM9.65296 17.374C9.79941 17.075 10.0411 16.8333 10.3401 16.6869L9.90015 15.7888C9.40191 16.0329 8.99902 16.4358 8.75493 16.934L9.65296 17.374ZM18.8333 13.2005C18.8333 14.2131 18.0125 15.0339 17 15.0339V16.0339C18.5648 16.0339 19.8333 14.7653 19.8333 13.2005H18.8333ZM17 15.0339C15.9875 15.0339 15.1667 14.2131 15.1667 13.2005H14.1667C14.1667 14.7653 15.4352 16.0339 17 16.0339V15.0339ZM15.1667 13.2005C15.1667 12.188 15.9875 11.3672 17 11.3672V10.3672C15.4352 10.3672 14.1667 11.6357 14.1667 13.2005H15.1667ZM17 11.3672C18.0125 11.3672 18.8333 12.188 18.8333 13.2005H19.8333C19.8333 11.6357 18.5648 10.3672 17 10.3672V11.3672ZM10.9444 11.3334C10.9444 10.3209 11.7653 9.50006 12.7778 9.50006V8.50006C11.213 8.50006 9.94444 9.76859 9.94444 11.3334H10.9444ZM12.7778 9.50006C13.415 9.50006 13.9766 9.82472 14.3059 10.32L15.1386 9.7663C14.6318 9.00413 13.7638 8.50006 12.7778 8.50006V9.50006ZM12.1666 13.0625C11.4539 12.8106 10.9444 12.1309 10.9444 11.3334H9.94444C9.94444 12.5678 10.7336 13.6167 11.8334 14.0054L12.1666 13.0625Z" fill="#414141"/>
</svg>
