<svg width="30" height="30" viewBox="0 0 30 30" fill="none" xmlns="http://www.w3.org/2000/svg">
<path d="M22.8 3C19.9326 3 17.6 5.355 17.6 8.25C17.6 10.581 19.1229 12.5385 21.2103 13.2225C20.9934 14.6205 20.3976 15.7725 19.3829 16.707C16.4917 19.3665 11.1713 19.6095 8.68571 19.5675V10.2555C10.8251 9.6045 12.4 7.62 12.4 5.25C12.4 2.355 10.0674 0 7.2 0C4.33257 0 2 2.355 2 5.25C2 7.62 3.57486 9.6045 5.71429 10.2555V19.7445C3.57486 20.3955 2 22.38 2 24.75C2 27.645 4.33257 30 7.2 30C10.0674 30 12.4 27.645 12.4 24.75C12.4 23.9235 12.192 23.1525 11.8547 22.4565C14.9153 22.1775 18.7737 21.321 21.3767 18.9315C23.0065 17.436 23.9485 15.5355 24.2055 13.2795C26.388 12.657 28 10.65 28 8.25C28 5.355 25.6674 3 22.8 3ZM4.97143 5.25C4.97143 4.0095 5.97131 3 7.2 3C8.42869 3 9.42857 4.0095 9.42857 5.25C9.42857 6.4905 8.42869 7.5 7.2 7.5C5.97131 7.5 4.97143 6.4905 4.97143 5.25ZM7.2 27C5.97131 27 4.97143 25.9905 4.97143 24.75C4.97217 24.1584 5.20363 23.591 5.61572 23.1704C6.02781 22.7499 6.58736 22.5101 7.17326 22.503L7.3664 22.518C7.65789 22.529 7.94437 22.5979 8.20949 22.7207C8.47461 22.8435 8.71318 23.0179 8.91157 23.2338C9.10995 23.4497 9.26428 23.7029 9.36574 23.979C9.46719 24.2551 9.51378 24.5487 9.50286 24.843C9.49193 25.1373 9.4237 25.4265 9.30206 25.6942C9.18041 25.9619 9.00774 26.2027 8.7939 26.403C8.58006 26.6033 8.32924 26.7591 8.05576 26.8616C7.78228 26.964 7.49149 27.011 7.2 27ZM22.8 10.5C21.5713 10.5 20.5714 9.4905 20.5714 8.25C20.5714 7.0095 21.5713 6 22.8 6C24.0287 6 25.0286 7.0095 25.0286 8.25C25.0286 9.4905 24.0287 10.5 22.8 10.5Z" fill="#525252" fill-opacity="0.5"/>
</svg>
