<svg width="30" height="30" viewBox="0 0 30 30" fill="none" xmlns="http://www.w3.org/2000/svg">
<g clip-path="url(#clip0_1142_927)">
<path d="M10.0148 9.33492C9.67487 9.33492 9.39927 9.61141 9.39927 9.95249V20.0475C9.39927 20.3886 9.67487 20.6651 10.0148 20.6651H20.077C20.417 20.6651 20.6926 20.3886 20.6926 20.0475V9.95249C20.6926 9.61142 20.417 9.33492 20.077 9.33492H10.0148Z" fill="#525252" fill-opacity="0.5"/>
<path fill-rule="evenodd" clip-rule="evenodd" d="M9.30457 0.771971V4.91686H12.0746V0.771971C12.0746 0.345623 12.4191 -5.23802e-08 12.8441 0C13.2691 0 13.6136 0.345624 13.6136 0.771971V4.91686H16.3836V0.771971C16.3836 0.345623 16.7281 -5.23802e-08 17.1531 0C17.578 0 17.9225 0.345624 17.9225 0.771971V4.91686H20.6926V0.771971C20.6926 0.345623 21.0371 -5.23802e-08 21.4621 0C21.887 0 22.2315 0.345624 22.2315 0.771971V4.91686H23.8415C24.5476 4.91686 25.12 5.49113 25.12 6.19952V7.74347H29.2305C29.6555 7.74347 30 8.08909 30 8.51544C30 8.94179 29.6555 9.28741 29.2305 9.28741H25.12V12.0662H29.1822C29.6072 12.0662 29.9517 12.4119 29.9517 12.8382C29.9517 13.2646 29.6072 13.6102 29.1822 13.6102H25.12V16.389H29.134C29.5589 16.389 29.9034 16.7346 29.9034 17.161C29.9034 17.5873 29.5589 17.9329 29.134 17.9329H25.12V20.7118H29.0857C29.5106 20.7118 29.8551 21.0574 29.8551 21.4837C29.8551 21.9101 29.5106 22.2557 29.0857 22.2557H25.12V23.8955C25.12 24.6039 24.5476 25.1781 23.8415 25.1781H22.3262V29.228C22.3262 29.6544 21.9817 30 21.5568 30C21.1318 30 20.7873 29.6544 20.7873 29.228V25.1781H18.0172V29.228C18.0172 29.6544 17.6727 30 17.2478 30C16.8228 30 16.4783 29.6544 16.4783 29.228V25.1781H13.7083V29.228C13.7083 29.6544 13.3638 30 12.9388 30C12.5138 30 12.1693 29.6544 12.1693 29.228V25.1781H9.39927V29.228C9.39927 29.6544 9.05477 30 8.62981 30C8.20485 30 7.86035 29.6544 7.86035 29.228V25.1781H6.20305C5.49696 25.1781 4.92456 24.6039 4.92456 23.8955V22.2557H0.769462C0.3445 22.2557 0 21.9101 0 21.4837C0 21.0574 0.3445 20.7118 0.769462 20.7118H4.92456V17.9329H0.817756C0.392794 17.9329 0.0482937 17.5873 0.0482937 17.161C0.0482937 16.7346 0.392794 16.389 0.817756 16.389H4.92456V13.6102H0.866049C0.441087 13.6102 0.0965873 13.2646 0.0965873 12.8382C0.0965873 12.4119 0.441087 12.0662 0.866049 12.0662H4.92456V9.28741H0.914343C0.489381 9.28741 0.144881 8.94179 0.144881 8.51544C0.144881 8.08909 0.489381 7.74347 0.914343 7.74347H4.92456V6.19952C4.92456 5.49113 5.49696 4.91686 6.20305 4.91686H7.76565V0.771971C7.76565 0.345623 8.11015 -5.23802e-08 8.53511 0C8.96007 0 9.30457 0.345624 9.30457 0.771971ZM7.05537 23.0404V7.05463H22.9892V23.0404H7.05537Z" fill="#525252" fill-opacity="0.5"/>
</g>
<defs>
<clipPath id="clip0_1142_927">
<rect width="30" height="30" fill="white"/>
</clipPath>
</defs>
</svg>
