<svg width="30" height="30" viewBox="0 0 30 30" fill="none" xmlns="http://www.w3.org/2000/svg">
<path fill-rule="evenodd" clip-rule="evenodd" d="M10.625 3.75C9.7962 3.75 9.00134 4.07924 8.41529 4.66529C7.82924 5.25134 7.5 6.0462 7.5 6.875C7.5 7.7038 7.82924 8.49866 8.41529 9.08471C9.00134 9.67076 9.7962 10 10.625 10H13.75V3.75H10.625ZM13.75 21.25H10.625C9.7962 21.25 9.00134 21.5792 8.41529 22.1653C7.82924 22.7513 7.5 23.5462 7.5 24.375C7.5 25.2038 7.82924 25.9987 8.41529 26.5847C9.00134 27.1708 9.7962 27.5 10.625 27.5C11.4538 27.5 12.2487 27.1708 12.8347 26.5847C13.4208 25.9987 13.75 25.2038 13.75 24.375V21.25ZM7.08944 20C6.93593 20.1241 6.78838 20.2567 6.64752 20.3975C5.59263 21.4524 5 22.8832 5 24.375C5 25.8668 5.59263 27.2976 6.64752 28.3525C7.70242 29.4074 9.13316 30 10.625 30C12.1168 30 13.5476 29.4074 14.6025 28.3525C15.6574 27.2976 16.25 25.8668 16.25 24.375V20.3021C16.5556 20.5063 16.8812 20.6805 17.2224 20.8218C17.9049 21.1045 18.6363 21.25 19.375 21.25C20.1137 21.25 20.8451 21.1045 21.5276 20.8218C22.2101 20.5391 22.8301 20.1248 23.3525 19.6025C23.8748 19.0801 24.2891 18.46 24.5718 17.7776C24.8545 17.0951 25 16.3637 25 15.625C25 14.8863 24.8545 14.1549 24.5718 13.4724C24.2891 12.79 23.8748 12.1699 23.3525 11.6475C23.212 11.5071 23.0645 11.3744 22.9105 11.25C23.0645 11.1256 23.212 10.9929 23.3525 10.8525C23.8748 10.3301 24.2891 9.71005 24.5718 9.02759C24.8545 8.34514 25 7.61369 25 6.875C25 6.13631 24.8545 5.40486 24.5718 4.72241C24.2891 4.03995 23.8748 3.41986 23.3525 2.89752C22.8301 2.37519 22.21 1.96086 21.5276 1.67818C20.8451 1.39549 20.1137 1.25 19.375 1.25H15H10.625C9.13316 1.25 7.70242 1.84263 6.64752 2.89752C5.59263 3.95242 5 5.38316 5 6.875C5 8.36684 5.59263 9.79758 6.64752 10.8525C6.78838 10.9933 6.93593 11.1259 7.08944 11.25C6.93593 11.3741 6.78838 11.5067 6.64752 11.6475C5.59263 12.7024 5 14.1332 5 15.625C5 17.1168 5.59263 18.5476 6.64752 19.6025C6.78838 19.7433 6.93593 19.8759 7.08944 20ZM10.625 12.5C9.7962 12.5 9.00134 12.8292 8.41529 13.4153C7.82924 14.0013 7.5 14.7962 7.5 15.625C7.5 16.4538 7.82924 17.2487 8.41529 17.8347C9.00134 18.4208 9.7962 18.75 10.625 18.75H13.75V15.625V12.5H10.625ZM16.25 15.625C16.25 16.0354 16.3308 16.4417 16.4879 16.8209C16.6449 17.2 16.8751 17.5445 17.1653 17.8347C17.4555 18.1249 17.8 18.3551 18.1791 18.5121C18.5583 18.6692 18.9646 18.75 19.375 18.75C19.7854 18.75 20.1917 18.6692 20.5709 18.5121C20.95 18.3551 21.2945 18.1249 21.5847 17.8347C21.8749 17.5445 22.1051 17.2 22.2621 16.8209C22.4192 16.4417 22.5 16.0354 22.5 15.625C22.5 15.2146 22.4192 14.8083 22.2621 14.4291C22.1051 14.05 21.8749 13.7055 21.5847 13.4153C21.2945 13.1251 20.95 12.8949 20.5709 12.7379C20.1917 12.5808 19.7854 12.5 19.375 12.5C18.9646 12.5 18.5583 12.5808 18.1791 12.7379C17.8 12.8949 17.4555 13.1251 17.1653 13.4153C16.8751 13.7055 16.6449 14.05 16.4879 14.4291C16.3308 14.8083 16.25 15.2146 16.25 15.625ZM19.375 10C19.7854 10 20.1917 9.91917 20.5709 9.76212C20.95 9.60508 21.2945 9.37489 21.5847 9.08471C21.8749 8.79453 22.1051 8.45003 22.2621 8.07089C22.4192 7.69174 22.5 7.28538 22.5 6.875C22.5 6.46462 22.4192 6.05826 22.2621 5.67911C22.1051 5.29997 21.8749 4.95547 21.5847 4.66529C21.2945 4.37511 20.95 4.14492 20.5709 3.98788C20.1917 3.83083 19.7854 3.75 19.375 3.75H16.25V10H19.375Z" fill="#525252" fill-opacity="0.5"/>
</svg>
