<svg width="30" height="30" viewBox="0 0 30 30" fill="none" xmlns="http://www.w3.org/2000/svg">
<path d="M25 7.5H21.25V5C21.25 3.62125 20.1288 2.5 18.75 2.5H11.25C9.87125 2.5 8.75 3.62125 8.75 5V7.5H5C3.62125 7.5 2.5 8.62125 2.5 10V23.75C2.5 25.1288 3.62125 26.25 5 26.25H25C26.3788 26.25 27.5 25.1288 27.5 23.75V10C27.5 8.62125 26.3788 7.5 25 7.5ZM18.75 5V7.5H11.25V5H18.75ZM10 10H25V13.75H5V10H10ZM5 23.75V16.25H12.5V18.75H17.5V16.25H25L25.0012 23.75H5Z" fill="#525252" fill-opacity="0.5"/>
</svg>
