<svg width="30" height="30" viewBox="0 0 30 30" fill="none" xmlns="http://www.w3.org/2000/svg">
<path d="M28 9.49785C27.9997 9.24501 27.935 8.99685 27.8125 8.77913C27.69 8.56141 27.5142 8.38206 27.3034 8.25968L15.1234 1.17638C14.9233 1.06068 14.6985 1 14.47 1C14.2415 1 14.0167 1.06068 13.8166 1.17638L1.69604 8.20302C1.48549 8.32536 1.30992 8.50456 1.18754 8.72203C1.06516 8.93951 1.00042 9.18737 1 9.43993C0.999589 9.69249 1.06353 9.94058 1.1852 10.1585C1.30686 10.3764 1.48184 10.5562 1.69199 10.6793L13.872 17.8193C14.0725 17.9375 14.2986 17.9998 14.5286 18C14.7586 18.0002 14.9848 17.9385 15.1855 17.8207L27.3061 10.7374C27.5166 10.6146 27.692 10.4348 27.814 10.2169C27.936 9.99889 28.0002 9.75064 28 9.49785ZM14.5308 14.9591L5.13052 9.44968L14.4687 4.0352L23.8703 9.50209L14.5308 14.9591Z" fill="#525252" fill-opacity="0.5"/>
<path d="M26.6195 13L14.5007 19.8812L2.38195 13L1 15.543L13.809 22.817C14.0204 22.937 14.2582 23 14.5 23C14.7418 23 14.9796 22.937 15.191 22.817L28 15.543L26.6195 13Z" fill="#525252" fill-opacity="0.5"/>
<path d="M26.6195 19L14.5007 25.1931L2.38195 19L1 21.2887L13.809 27.8353C14.0204 27.9433 14.2582 28 14.5 28C14.7418 28 14.9796 27.9433 15.191 27.8353L28 21.2887L26.6195 19Z" fill="#525252" fill-opacity="0.5"/>
</svg>
