<svg width="32" height="33" viewBox="0 0 32 33" fill="none" xmlns="http://www.w3.org/2000/svg">
<path d="M22.1387 14.9307C22.9507 13.5468 23.3014 11.9404 23.14 10.344C22.9014 7.96534 21.5734 5.86268 19.4027 4.42401L17.9294 6.64534C19.4214 7.63468 20.3294 9.04401 20.4867 10.6107C20.5592 11.3388 20.4686 12.074 20.2213 12.7627C19.9741 13.4514 19.5765 14.0763 19.0574 14.592L17.468 16.1813L19.6254 16.8147C25.268 18.468 25.3334 24.1427 25.3334 24.2H28C28 21.8147 26.7254 17.1533 22.1387 14.9307Z" fill="#979797"/>
<path d="M12.6667 16.2C15.6081 16.2 18.0001 13.808 18.0001 10.8667C18.0001 7.92533 15.6081 5.53333 12.6667 5.53333C9.72541 5.53333 7.33342 7.92533 7.33342 10.8667C7.33342 13.808 9.72541 16.2 12.6667 16.2ZM12.6667 8.19999C14.1374 8.19999 15.3334 9.39599 15.3334 10.8667C15.3334 12.3373 14.1374 13.5333 12.6667 13.5333C11.1961 13.5333 10.0001 12.3373 10.0001 10.8667C10.0001 9.39599 11.1961 8.19999 12.6667 8.19999ZM14.6667 17.5333H10.6667C6.25475 17.5333 2.66675 21.1213 2.66675 25.5333V26.8667H5.33341V25.5333C5.33341 22.592 7.72541 20.2 10.6667 20.2H14.6667C17.6081 20.2 20.0001 22.592 20.0001 25.5333V26.8667H22.6667V25.5333C22.6667 21.1213 19.0787 17.5333 14.6667 17.5333Z" fill="#979797"/>
</svg>
