<svg width="32" height="33" viewBox="0 0 32 33" fill="none" xmlns="http://www.w3.org/2000/svg">
<path d="M27.4133 4.65332C27.2201 4.51967 26.9951 4.43942 26.7609 4.42069C26.5268 4.40196 26.2919 4.44541 26.0799 4.54665L3.41327 15.2133C3.18225 15.3233 2.98775 15.4974 2.85299 15.7149C2.71822 15.9325 2.6489 16.1841 2.65327 16.44C2.65751 16.6957 2.73518 16.9447 2.87702 17.1575C3.01886 17.3702 3.21889 17.5377 3.45327 17.64L10.6666 20.8V29.76L18.4533 24.2L24.7999 26.9733C24.9666 27.0525 25.1488 27.0935 25.3333 27.0933C25.5784 27.0916 25.8183 27.0224 26.0266 26.8933C26.2102 26.7822 26.3642 26.6284 26.4756 26.445C26.587 26.2617 26.6526 26.0541 26.6666 25.84L27.9999 5.83998C28.0139 5.60823 27.9672 5.37683 27.8643 5.1687C27.7614 4.96057 27.6059 4.78291 27.4133 4.65332ZM24.1333 23.7733L17.1066 20.6933L21.3333 12.4266L11.1333 18.0933L7.2266 16.3733L25.1866 7.91998L24.1333 23.7733Z" fill="#979797"/>
</svg>
