<svg width="30" height="30" viewBox="0 0 30 30" fill="none" xmlns="http://www.w3.org/2000/svg">
<path fill-rule="evenodd" clip-rule="evenodd" d="M29 3.82511C29 2.26484 27.7352 1 26.1749 1H3.82511C2.26485 1 1 2.26485 1 3.82511V20.148C1 21.7083 2.26485 22.9731 3.82511 22.9731H10.7647V26.991H8.34529C7.79053 26.991 7.34081 27.4408 7.34081 27.9955C7.34081 28.5503 7.79053 29 8.34529 29H15.2511C15.8059 29 16.2556 28.5503 16.2556 27.9955C16.2556 27.4408 15.8059 26.991 15.2511 26.991H12.7737V22.9731H17.009V26.1749C17.009 27.7352 18.2738 29 19.8341 29H26.1749C27.7352 29 29 27.7352 29 26.1749V3.82511ZM26.991 10.5995V3.82511C26.991 3.37437 26.6256 3.00897 26.1749 3.00897H3.82511C3.37437 3.00897 3.00897 3.37437 3.00897 3.82511V18.2646H17.009V13.3049C17.009 11.7447 18.2738 10.4798 19.8341 10.4798H26.1749C26.4586 10.4798 26.7326 10.5217 26.991 10.5995ZM18.8296 13.5561V24.7309H27.1794V13.5561H18.8296ZM23.0045 27.3049C23.4032 27.3049 23.7265 26.9817 23.7265 26.583C23.7265 26.1842 23.4032 25.861 23.0045 25.861C22.6058 25.861 22.2825 26.1842 22.2825 26.583C22.2825 26.9817 22.6058 27.3049 23.0045 27.3049ZM23.4126 12.3004C23.4126 12.5085 23.2439 12.6771 23.0359 12.6771C22.8278 12.6771 22.6592 12.5085 22.6592 12.3004C22.6592 12.0924 22.8278 11.9238 23.0359 11.9238C23.2439 11.9238 23.4126 12.0924 23.4126 12.3004Z" fill="#525252" fill-opacity="0.5"/>
</svg>
