<svg width="30" height="31" viewBox="0 0 30 31" fill="none" xmlns="http://www.w3.org/2000/svg">
<g clip-path="url(#clip0_500_50)">
<path d="M9.07172 12.1719L14.7694 8.91677C14.8394 8.87662 14.9189 8.85547 14.9998 8.85547C15.0807 8.85547 15.1602 8.87662 15.2302 8.91677L20.9283 12.1719C21.0708 12.2536 21.1589 12.4038 21.1589 12.5671V19.0784C21.1589 19.2407 21.0708 19.3919 20.9283 19.4735L15.2297 22.7241C15.1597 22.7642 15.0802 22.7854 14.9993 22.7854C14.9184 22.7854 14.8389 22.7642 14.7689 22.7241L9.07172 19.4773C8.92922 19.3956 8.84109 19.2453 8.84109 19.0821V12.5676C8.84109 12.4052 8.92922 12.254 9.07172 12.1724" fill="#525252" fill-opacity="0.5"/>
<path d="M29.8144 15.1378L23.0063 3.41869C22.7592 2.99475 22.3031 2.68677 21.8081 2.68677H8.19235C7.69782 2.68677 7.24079 2.99939 6.99376 3.42287L0.185631 15.1174C0.0639403 15.3278 -7.62939e-05 15.5661 -7.62939e-05 15.8085C-7.62939e-05 16.051 0.0639403 16.2892 0.185631 16.4996L6.99376 28.1186C7.24126 28.5425 7.69782 28.7586 8.19235 28.7586H21.8081C22.3027 28.7586 22.7597 28.5485 23.0067 28.1246L29.8144 16.4825C29.9359 16.2789 29.9999 16.0468 29.9999 15.8104C29.9999 15.574 29.9359 15.3419 29.8144 15.1383V15.1378ZM24.1772 20.7738C24.1772 20.9454 24.0722 21.1055 23.9213 21.1913L15.2494 26.1417C15.1747 26.1842 15.0901 26.2066 15.004 26.2066C14.9179 26.2066 14.8333 26.1842 14.7586 26.1417L6.08063 21.1913C5.92969 21.105 5.82422 20.9454 5.82422 20.7738V10.872C5.82635 10.7865 5.851 10.703 5.89572 10.6298C5.94044 10.5565 6.00369 10.4961 6.07922 10.4545L14.7511 5.50407C14.8257 5.46167 14.9102 5.43936 14.9963 5.43936C15.0823 5.43936 15.1668 5.46167 15.2414 5.50407L23.9203 10.4541C24.0713 10.5403 24.1781 10.6999 24.1781 10.8715L24.1772 20.7738Z" fill="#525252" fill-opacity="0.5"/>
</g>
<defs>
<clipPath id="clip0_500_50">
<rect width="30" height="29.6851" fill="white" transform="translate(0 0.877686)"/>
</clipPath>
</defs>
</svg>
