<svg width="71" height="90" viewBox="0 0 71 90" fill="none" xmlns="http://www.w3.org/2000/svg">
<g filter="url(#filter0_d_315_576)">
<path d="M32.7239 26.5C33.8786 24.5 36.7654 24.5 37.9201 26.5L45.1271 38.983C46.2819 40.983 44.8385 43.483 42.5291 43.483H28.1149C25.8055 43.483 24.3622 40.983 25.5169 38.983L32.7239 26.5Z" fill="#CA3E47"/>
<path d="M37.4871 26.75L44.6941 39.233C45.6564 40.8997 44.4536 42.983 42.5291 42.983H28.1149C26.1904 42.983 24.9876 40.8997 25.9499 39.233L33.1569 26.75C34.1192 25.0833 36.5248 25.0833 37.4871 26.75Z" stroke="#313131" stroke-opacity="0.8"/>
<path d="M38.0632 63.3996C36.9204 65.4064 34.0337 65.4236 32.8671 63.4305L25.586 50.9905C24.4195 48.9974 25.848 46.4888 28.1573 46.4751L42.5712 46.3895C44.8806 46.3758 46.3388 48.8672 45.196 50.874L38.0632 63.3996Z" fill="#CA3E47"/>
<path d="M33.2986 63.1779L26.0175 50.7379C25.0454 49.077 26.2358 46.9865 28.1603 46.9751L42.5742 46.8895C44.4987 46.8781 45.7138 48.9542 44.7615 50.6266L37.6287 63.1522C36.6763 64.8245 34.2707 64.8388 33.2986 63.1779Z" stroke="#313131" stroke-opacity="0.8"/>
<g filter="url(#filter1_d_315_576)">
<line x1="29.082" y1="49.9828" x2="35.3769" y2="60.8859" stroke="#313131" stroke-width="0.3" stroke-linecap="round"/>
</g>
<g filter="url(#filter2_d_315_576)">
<line x1="35.2671" y1="60.8859" x2="41.562" y2="49.9828" stroke="#313131" stroke-width="0.3" stroke-linecap="round"/>
</g>
<g filter="url(#filter3_d_315_576)">
<line x1="41.5619" y1="38.8368" x2="35.267" y2="27.9337" stroke="#313131" stroke-width="0.3" stroke-linecap="round"/>
</g>
<g filter="url(#filter4_d_315_576)">
<line x1="35.3769" y1="27.9337" x2="29.082" y2="38.8368" stroke="#313131" stroke-width="0.3" stroke-linecap="round"/>
</g>
</g>
<defs>
<filter id="filter0_d_315_576" x="0.110474" y="-2.38419e-06" width="70.483" height="89.9151" filterUnits="userSpaceOnUse" color-interpolation-filters="sRGB">
<feFlood flood-opacity="0" result="BackgroundImageFix"/>
<feColorMatrix in="SourceAlpha" type="matrix" values="0 0 0 0 0 0 0 0 0 0 0 0 0 0 0 0 0 0 127 0" result="hardAlpha"/>
<feOffset/>
<feGaussianBlur stdDeviation="12.5"/>
<feColorMatrix type="matrix" values="0 0 0 0 0.792157 0 0 0 0 0.243137 0 0 0 0 0.278431 0 0 0 1 0"/>
<feBlend mode="normal" in2="BackgroundImageFix" result="effect1_dropShadow_315_576"/>
<feBlend mode="normal" in="SourceGraphic" in2="effect1_dropShadow_315_576" result="shape"/>
</filter>
<filter id="filter1_d_315_576" x="27.932" y="48.8328" width="8.59485" height="13.2031" filterUnits="userSpaceOnUse" color-interpolation-filters="sRGB">
<feFlood flood-opacity="0" result="BackgroundImageFix"/>
<feColorMatrix in="SourceAlpha" type="matrix" values="0 0 0 0 0 0 0 0 0 0 0 0 0 0 0 0 0 0 127 0" result="hardAlpha"/>
<feOffset/>
<feGaussianBlur stdDeviation="0.5"/>
<feComposite in2="hardAlpha" operator="out"/>
<feColorMatrix type="matrix" values="0 0 0 0 0 0 0 0 0 0 0 0 0 0 0 0 0 0 0.5 0"/>
<feBlend mode="normal" in2="BackgroundImageFix" result="effect1_dropShadow_315_576"/>
<feBlend mode="normal" in="SourceGraphic" in2="effect1_dropShadow_315_576" result="shape"/>
</filter>
<filter id="filter2_d_315_576" x="34.1171" y="48.8328" width="8.59497" height="13.2031" filterUnits="userSpaceOnUse" color-interpolation-filters="sRGB">
<feFlood flood-opacity="0" result="BackgroundImageFix"/>
<feColorMatrix in="SourceAlpha" type="matrix" values="0 0 0 0 0 0 0 0 0 0 0 0 0 0 0 0 0 0 127 0" result="hardAlpha"/>
<feOffset/>
<feGaussianBlur stdDeviation="0.5"/>
<feComposite in2="hardAlpha" operator="out"/>
<feColorMatrix type="matrix" values="0 0 0 0 0 0 0 0 0 0 0 0 0 0 0 0 0 0 0.5 0"/>
<feBlend mode="normal" in2="BackgroundImageFix" result="effect1_dropShadow_315_576"/>
<feBlend mode="normal" in="SourceGraphic" in2="effect1_dropShadow_315_576" result="shape"/>
</filter>
<filter id="filter3_d_315_576" x="34.1171" y="26.7837" width="8.59485" height="13.2031" filterUnits="userSpaceOnUse" color-interpolation-filters="sRGB">
<feFlood flood-opacity="0" result="BackgroundImageFix"/>
<feColorMatrix in="SourceAlpha" type="matrix" values="0 0 0 0 0 0 0 0 0 0 0 0 0 0 0 0 0 0 127 0" result="hardAlpha"/>
<feOffset/>
<feGaussianBlur stdDeviation="0.5"/>
<feComposite in2="hardAlpha" operator="out"/>
<feColorMatrix type="matrix" values="0 0 0 0 0 0 0 0 0 0 0 0 0 0 0 0 0 0 0.5 0"/>
<feBlend mode="normal" in2="BackgroundImageFix" result="effect1_dropShadow_315_576"/>
<feBlend mode="normal" in="SourceGraphic" in2="effect1_dropShadow_315_576" result="shape"/>
</filter>
<filter id="filter4_d_315_576" x="27.932" y="26.7837" width="8.59497" height="13.2031" filterUnits="userSpaceOnUse" color-interpolation-filters="sRGB">
<feFlood flood-opacity="0" result="BackgroundImageFix"/>
<feColorMatrix in="SourceAlpha" type="matrix" values="0 0 0 0 0 0 0 0 0 0 0 0 0 0 0 0 0 0 127 0" result="hardAlpha"/>
<feOffset/>
<feGaussianBlur stdDeviation="0.5"/>
<feComposite in2="hardAlpha" operator="out"/>
<feColorMatrix type="matrix" values="0 0 0 0 0 0 0 0 0 0 0 0 0 0 0 0 0 0 0.5 0"/>
<feBlend mode="normal" in2="BackgroundImageFix" result="effect1_dropShadow_315_576"/>
<feBlend mode="normal" in="SourceGraphic" in2="effect1_dropShadow_315_576" result="shape"/>
</filter>
</defs>
</svg>
