<svg width="30" height="30" viewBox="0 0 30 30" fill="none" xmlns="http://www.w3.org/2000/svg">
<g clip-path="url(#clip0_500_5)">
<path d="M6.25 4.32967C6.25 5.53933 6.25125 24.3968 6.25 25.6201C6.2475 28.3585 10.635 29.7339 15.0175 29.7339C19.3862 29.7339 23.75 28.3672 23.75 25.6201V4.32967C23.75 1.42547 19.5362 0.0488281 15.2437 0.0488281C10.79 0.0488281 6.25 1.53185 6.25 4.32967V4.32967ZM15 2.52259C15.345 2.52259 15.625 2.79841 15.625 3.14103C15.625 3.4824 15.345 3.75946 15 3.75946C14.655 3.75946 14.375 3.4824 14.375 3.14103C14.375 2.79841 14.655 2.52259 15 2.52259V2.52259ZM15 27.2602C14.31 27.2602 13.75 26.706 13.75 26.0233C13.75 25.3393 14.31 24.7864 15 24.7864C15.69 24.7864 16.25 25.3393 16.25 26.0233C16.25 26.706 15.69 27.2602 15 27.2602ZM21.25 23.5495H8.75V4.99634H21.25V23.5495Z" fill="#525252" fill-opacity="0.5"/>
</g>
<defs>
<clipPath id="clip0_500_5">
<rect width="30" height="29.6851" fill="white" transform="translate(0 0.0488281)"/>
</clipPath>
</defs>
</svg>
