<svg width="30" height="30" viewBox="0 0 30 30" fill="none" xmlns="http://www.w3.org/2000/svg">
<path d="M20.3569 7.99976H21.4284C21.5704 7.99976 21.7066 8.05556 21.807 8.1549C21.9074 8.25424 21.9638 8.38897 21.9638 8.52945V8.52945C21.9638 8.66993 21.9074 8.80466 21.807 8.904C21.7066 9.00334 21.5704 9.05914 21.4284 9.05914H20.3569C20.2149 9.05914 20.0787 9.00334 19.9784 8.904C19.878 8.80466 19.8216 8.66993 19.8216 8.52945V8.52945C19.8216 8.38897 19.878 8.25424 19.9784 8.1549C20.0787 8.05556 20.2149 7.99976 20.3569 7.99976Z" fill="#666666" fill-opacity="0.5"/>
<path d="M4.28531 24.9629H9.64219C9.78416 24.9629 9.92032 25.0187 10.0207 25.118C10.1211 25.2174 10.1775 25.3521 10.1775 25.4926V25.4926C10.1775 25.5621 10.1637 25.631 10.1368 25.6953C10.1099 25.7596 10.0704 25.8179 10.0207 25.8671C9.971 25.9163 9.91199 25.9553 9.84704 25.982C9.7821 26.0086 9.71249 26.0223 9.64219 26.0223H4.28531C4.1435 26.0223 4.00749 25.9666 3.90712 25.8675C3.80676 25.7683 3.75025 25.6338 3.75 25.4935V25.4935C3.74988 25.4239 3.76363 25.3549 3.79048 25.2905C3.81733 25.2261 3.85674 25.1676 3.90646 25.1184C3.95618 25.0691 4.01523 25.03 4.08024 25.0033C4.14525 24.9766 4.21494 24.9629 4.28531 24.9629V24.9629Z" fill="#666666" fill-opacity="0.5"/>
<path d="M17.1431 16.4814H20.3578C20.4998 16.4814 20.6359 16.5373 20.7363 16.6366C20.8367 16.7359 20.8931 16.8707 20.8931 17.0111V17.0111C20.8931 17.1516 20.8367 17.2864 20.7363 17.3857C20.6359 17.485 20.4998 17.5408 20.3578 17.5408H17.1431C17.0011 17.5408 16.865 17.485 16.7646 17.3857C16.6642 17.2864 16.6078 17.1516 16.6078 17.0111V17.0111C16.6078 16.8707 16.6642 16.7359 16.7646 16.6366C16.865 16.5373 17.0011 16.4814 17.1431 16.4814V16.4814Z" fill="#666666" fill-opacity="0.5"/>
<path d="M10.7147 16.4814H15C15.142 16.4814 15.2781 16.5373 15.3785 16.6366C15.4789 16.7359 15.5353 16.8707 15.5353 17.0111V17.0111C15.5353 17.1516 15.4789 17.2864 15.3785 17.3857C15.2781 17.485 15.142 17.5408 15 17.5408H10.7147C10.5727 17.5408 10.4366 17.485 10.3362 17.3857C10.2358 17.2864 10.1794 17.1516 10.1794 17.0111C10.1794 16.8707 10.2358 16.7359 10.3362 16.6366C10.4366 16.5373 10.5727 16.4814 10.7147 16.4814V16.4814Z" fill="#666666" fill-opacity="0.5"/>
<path d="M4.28531 16.4814H8.57156C8.71354 16.4814 8.8497 16.5373 8.95009 16.6366C9.05048 16.7359 9.10688 16.8707 9.10688 17.0111C9.10688 17.1516 9.05048 17.2864 8.95009 17.3857C8.8497 17.485 8.71354 17.5408 8.57156 17.5408H4.28531C4.1435 17.5408 4.00749 17.4852 3.90712 17.386C3.80676 17.2869 3.75025 17.1524 3.75 17.0121V17.0121C3.74988 16.9424 3.76363 16.8734 3.79048 16.8091C3.81733 16.7447 3.85674 16.6862 3.90646 16.6369C3.95618 16.5876 4.01523 16.5485 4.08024 16.5219C4.14525 16.4952 4.21494 16.4814 4.28531 16.4814V16.4814Z" fill="#666666" fill-opacity="0.5"/>
<path d="M4.28531 20.7227H9.64219C9.78416 20.7227 9.92032 20.7785 10.0207 20.8778C10.1211 20.9771 10.1775 21.1119 10.1775 21.2524V21.2524C10.1775 21.3928 10.1211 21.5276 10.0207 21.6269C9.92032 21.7262 9.78416 21.782 9.64219 21.782H4.28531C4.14334 21.782 4.00718 21.7262 3.90679 21.6269C3.8064 21.5276 3.75 21.3928 3.75 21.2524V21.2524C3.75 21.1119 3.8064 20.9771 3.90679 20.8778C4.00718 20.7785 4.14334 20.7227 4.28531 20.7227V20.7227Z" fill="#666666" fill-opacity="0.5"/>
<path d="M4.28531 12.241H9.64219C9.78416 12.241 9.92032 12.2968 10.0207 12.3961C10.1211 12.4954 10.1775 12.6302 10.1775 12.7707V12.7707C10.1775 12.9111 10.1211 13.0459 10.0207 13.1452C9.92032 13.2445 9.78416 13.3004 9.64219 13.3004H4.28531C4.14334 13.3004 4.00718 13.2445 3.90679 13.1452C3.8064 13.0459 3.75 12.9111 3.75 12.7707V12.7707C3.75 12.6302 3.8064 12.4954 3.90679 12.3961C4.00718 12.2968 4.14334 12.241 4.28531 12.241V12.241Z" fill="#666666" fill-opacity="0.5"/>
<path d="M9.64312 5.88013H20.3569C20.4988 5.88013 20.635 5.93593 20.7354 6.03527C20.8358 6.13461 20.8922 6.26934 20.8922 6.40982V6.40982C20.8922 6.5503 20.8358 6.68503 20.7354 6.78437C20.635 6.88371 20.4988 6.93951 20.3569 6.93951H9.64312C9.50115 6.93951 9.36499 6.88371 9.2646 6.78437C9.16421 6.68503 9.10781 6.5503 9.10781 6.40982C9.10781 6.26934 9.16421 6.13461 9.2646 6.03527C9.36499 5.93593 9.50115 5.88013 9.64312 5.88013V5.88013Z" fill="#666666" fill-opacity="0.5"/>
<path d="M4.28531 5.88013H7.5C7.64197 5.88013 7.77813 5.93593 7.87852 6.03527C7.97891 6.13461 8.03531 6.26934 8.03531 6.40982C8.03544 6.47946 8.02168 6.54844 7.99483 6.61281C7.96799 6.67718 7.92858 6.73568 7.87886 6.78497C7.82914 6.83425 7.77008 6.87335 7.70507 6.90003C7.64006 6.92671 7.57038 6.94044 7.5 6.94044H4.28531C4.21494 6.94044 4.14525 6.92671 4.08024 6.90003C4.01523 6.87335 3.95618 6.83425 3.90646 6.78497C3.85674 6.73568 3.81733 6.67718 3.79048 6.61281C3.76363 6.54844 3.74988 6.47946 3.75 6.40982V6.40982C3.75 6.26934 3.8064 6.13461 3.90679 6.03527C4.00718 5.93593 4.14334 5.88013 4.28531 5.88013V5.88013Z" fill="#666666" fill-opacity="0.5"/>
<path d="M8.57156 22.8423H9.64312C9.7851 22.8423 9.92126 22.8981 10.0216 22.9974C10.122 23.0968 10.1784 23.2315 10.1784 23.372V23.372C10.1784 23.5125 10.122 23.6472 10.0216 23.7465C9.92126 23.8459 9.7851 23.9017 9.64312 23.9017H8.57156C8.42959 23.9017 8.29343 23.8459 8.19304 23.7465C8.09265 23.6472 8.03625 23.5125 8.03625 23.372V23.372C8.03625 23.2315 8.09265 23.0968 8.19304 22.9974C8.29343 22.8981 8.42959 22.8423 8.57156 22.8423Z" fill="#666666" fill-opacity="0.5"/>
<path d="M8.57156 10.1204H9.64312C9.7851 10.1204 9.92126 10.1762 10.0216 10.2755C10.122 10.3748 10.1784 10.5096 10.1784 10.6501C10.1784 10.7905 10.122 10.9253 10.0216 11.0246C9.92126 11.1239 9.7851 11.1797 9.64312 11.1797H8.57156C8.42959 11.1797 8.29343 11.1239 8.19304 11.0246C8.09265 10.9253 8.03625 10.7905 8.03625 10.6501C8.03625 10.5096 8.09265 10.3748 8.19304 10.2755C8.29343 10.1762 8.42959 10.1204 8.57156 10.1204Z" fill="#666666" fill-opacity="0.5"/>
<path d="M4.28531 22.8423H6.42844C6.57041 22.8423 6.70657 22.8981 6.80696 22.9974C6.90735 23.0968 6.96375 23.2315 6.96375 23.372V23.372C6.96375 23.5125 6.90735 23.6472 6.80696 23.7465C6.70657 23.8459 6.57041 23.9017 6.42844 23.9017H4.28531C4.1435 23.9017 4.00749 23.846 3.90712 23.7469C3.80676 23.6477 3.75025 23.5132 3.75 23.3729V23.3729C3.74988 23.3033 3.76363 23.2343 3.79048 23.1699C3.81733 23.1055 3.85674 23.047 3.90646 22.9978C3.95618 22.9485 4.01523 22.9094 4.08024 22.8827C4.14525 22.856 4.21494 22.8423 4.28531 22.8423V22.8423Z" fill="#666666" fill-opacity="0.5"/>
<path d="M4.28531 10.1204H6.42844C6.57041 10.1204 6.70657 10.1762 6.80696 10.2755C6.90735 10.3748 6.96375 10.5096 6.96375 10.6501C6.96387 10.7197 6.95012 10.7887 6.92327 10.853C6.89643 10.9174 6.85701 10.9759 6.80729 11.0252C6.75757 11.0745 6.69852 11.1136 6.63351 11.1403C6.5685 11.1669 6.49882 11.1807 6.42844 11.1807H4.28531C4.14334 11.1807 4.00718 11.1249 3.90679 11.0255C3.8064 10.9262 3.75 10.7915 3.75 10.651V10.651C3.74988 10.5813 3.76363 10.5124 3.79048 10.448C3.81733 10.3836 3.85674 10.3251 3.90646 10.2758C3.95618 10.2265 4.01523 10.1874 4.08024 10.1608C4.14525 10.1341 4.21494 10.1204 4.28531 10.1204Z" fill="#666666" fill-opacity="0.5"/>
<path opacity="0.5" d="M18.2147 22.8423H19.2863C19.4282 22.8423 19.5644 22.8981 19.6648 22.9974C19.7652 23.0968 19.8216 23.2315 19.8216 23.372V23.372C19.8216 23.5125 19.7652 23.6472 19.6648 23.7465C19.5644 23.8459 19.4282 23.9017 19.2863 23.9017H18.2147C18.0727 23.9017 17.9366 23.8459 17.8362 23.7465C17.7358 23.6472 17.6794 23.5125 17.6794 23.372V23.372C17.6794 23.2315 17.7358 23.0968 17.8362 22.9974C17.9366 22.8981 18.0727 22.8423 18.2147 22.8423Z" fill="#525252" fill-opacity="0.5"/>
<path opacity="0.5" d="M11.7853 22.8423H16.0706C16.2126 22.8423 16.3488 22.8981 16.4491 22.9974C16.5495 23.0968 16.6059 23.2315 16.6059 23.372V23.372C16.6059 23.5125 16.5495 23.6472 16.4491 23.7465C16.3488 23.8459 16.2126 23.9017 16.0706 23.9017H11.7853C11.6435 23.9017 11.5075 23.846 11.4071 23.7469C11.3068 23.6477 11.2502 23.5132 11.25 23.3729V23.3729C11.2499 23.3033 11.2636 23.2343 11.2905 23.1699C11.3173 23.1055 11.3567 23.047 11.4065 22.9978C11.4562 22.9485 11.5152 22.9094 11.5802 22.8827C11.6452 22.856 11.7149 22.8423 11.7853 22.8423V22.8423Z" fill="#525252" fill-opacity="0.5"/>
<path opacity="0.5" d="M21.4284 22.8423H25.7138C25.8557 22.8423 25.9919 22.8981 26.0923 22.9974C26.1927 23.0968 26.2491 23.2315 26.2491 23.372V23.372C26.2491 23.5125 26.1927 23.6472 26.0923 23.7465C25.9919 23.8459 25.8557 23.9017 25.7138 23.9017H21.4284C21.2865 23.9017 21.1503 23.8459 21.0499 23.7465C20.9495 23.6472 20.8931 23.5125 20.8931 23.372V23.372C20.8931 23.2315 20.9495 23.0968 21.0499 22.9974C21.1503 22.8981 21.2865 22.8423 21.4284 22.8423Z" fill="#525252" fill-opacity="0.5"/>
<path d="M12.8569 14.3616H21.4284C21.5704 14.3616 21.7066 14.4174 21.807 14.5167C21.9074 14.6161 21.9638 14.7508 21.9638 14.8913V14.8913C21.9638 15.0317 21.9074 15.1665 21.807 15.2658C21.7066 15.3652 21.5704 15.421 21.4284 15.421H12.8569C12.7149 15.421 12.5787 15.3652 12.4784 15.2658C12.378 15.1665 12.3216 15.0317 12.3216 14.8913V14.8913C12.3216 14.7508 12.378 14.6161 12.4784 14.5167C12.5787 14.4174 12.7149 14.3616 12.8569 14.3616V14.3616Z" fill="#666666" fill-opacity="0.5"/>
<path d="M7.5 14.3616H10.7147C10.8567 14.3616 10.9928 14.4174 11.0932 14.5167C11.1936 14.6161 11.25 14.7508 11.25 14.8913C11.25 15.0317 11.1936 15.1665 11.0932 15.2658C10.9928 15.3652 10.8567 15.421 10.7147 15.421H7.5C7.35803 15.421 7.22187 15.3652 7.12148 15.2658C7.02109 15.1665 6.96469 15.0317 6.96469 14.8913V14.8913C6.96469 14.7508 7.02109 14.6161 7.12148 14.5167C7.22187 14.4174 7.35803 14.3616 7.5 14.3616V14.3616Z" fill="#666666" fill-opacity="0.5"/>
<path d="M4.28531 14.3616H5.35688C5.42725 14.3615 5.49696 14.3751 5.56202 14.4016C5.62707 14.4282 5.6862 14.4672 5.736 14.5164C5.78581 14.5656 5.82533 14.624 5.85229 14.6883C5.87925 14.7527 5.89312 14.8216 5.89312 14.8913V14.8913C5.89312 15.0318 5.83673 15.1665 5.73634 15.2658C5.63595 15.3652 5.49979 15.421 5.35781 15.421H4.28531C4.14334 15.421 4.00718 15.3652 3.90679 15.2658C3.8064 15.1665 3.75 15.0318 3.75 14.8913V14.8913C3.75 14.7508 3.8064 14.6161 3.90679 14.5167C4.00718 14.4174 4.14334 14.3616 4.28531 14.3616V14.3616Z" fill="#666666" fill-opacity="0.5"/>
<path d="M13.9284 7.99976H18.2138C18.2842 7.99963 18.354 8.01328 18.4191 8.0399C18.4842 8.06652 18.5434 8.1056 18.5932 8.1549C18.643 8.2042 18.6825 8.26274 18.7094 8.32717C18.7363 8.39161 18.7501 8.46066 18.75 8.53038C18.75 8.67086 18.6936 8.80559 18.5932 8.90493C18.4928 9.00426 18.3567 9.06007 18.2147 9.06007H13.9284C13.7865 9.06007 13.6503 9.00426 13.5499 8.90493C13.4495 8.80559 13.3931 8.67086 13.3931 8.53038V8.53038C13.393 8.46074 13.4068 8.39176 13.4336 8.32739C13.4605 8.26302 13.4999 8.20451 13.5496 8.15523C13.5993 8.10594 13.6584 8.06684 13.7234 8.04017C13.7884 8.01349 13.8581 7.99976 13.9284 7.99976V7.99976Z" fill="#666666" fill-opacity="0.5"/>
<path d="M4.28531 7.99976H11.7853C11.9273 7.99976 12.0634 8.05556 12.1638 8.1549C12.2642 8.25424 12.3206 8.38897 12.3206 8.52945V8.52945C12.3206 8.66993 12.2642 8.80466 12.1638 8.904C12.0634 9.00334 11.9273 9.05914 11.7853 9.05914H4.28531C4.1435 9.05914 4.00749 9.00346 3.90712 8.90433C3.80676 8.80519 3.75025 8.6707 3.75 8.53038V8.53038C3.74988 8.46074 3.76363 8.39176 3.79048 8.32739C3.81733 8.26301 3.85674 8.20451 3.90646 8.15523C3.95618 8.10594 4.01523 8.06684 4.08024 8.04016C4.14525 8.01349 4.21494 7.99976 4.28531 7.99976Z" fill="#666666" fill-opacity="0.5"/>
<path d="M7.5 18.6021H17.1431C17.2134 18.6021 17.283 18.6158 17.348 18.6424C17.4129 18.669 17.4719 18.708 17.5217 18.7572C17.5714 18.8064 17.6108 18.8648 17.6377 18.929C17.6646 18.9933 17.6784 19.0622 17.6784 19.1317C17.6784 19.2722 17.622 19.407 17.5217 19.5063C17.4213 19.6056 17.2851 19.6614 17.1431 19.6614H7.5C7.35803 19.6614 7.22187 19.6056 7.12148 19.5063C7.02109 19.407 6.96469 19.2722 6.96469 19.1317V19.1317C6.96469 19.0622 6.97854 18.9933 7.00544 18.929C7.03234 18.8648 7.07177 18.8064 7.12148 18.7572C7.17119 18.708 7.2302 18.669 7.29515 18.6424C7.3601 18.6158 7.42971 18.6021 7.5 18.6021V18.6021Z" fill="#666666" fill-opacity="0.5"/>
<path d="M4.28531 18.6021H5.35688C5.42717 18.6021 5.49678 18.6158 5.56173 18.6424C5.62668 18.669 5.68569 18.708 5.7354 18.7572C5.78511 18.8064 5.82454 18.8648 5.85144 18.929C5.87834 18.9933 5.89219 19.0622 5.89219 19.1317V19.1317C5.89219 19.2722 5.83579 19.407 5.7354 19.5063C5.63501 19.6056 5.49885 19.6614 5.35688 19.6614H4.28531C4.14334 19.6614 4.00718 19.6056 3.90679 19.5063C3.8064 19.407 3.75 19.2722 3.75 19.1317V19.1317C3.75 19.0622 3.76385 18.9933 3.79075 18.929C3.81765 18.8648 3.85708 18.8064 3.90679 18.7572C3.9565 18.708 4.01551 18.669 4.08046 18.6424C4.1454 18.6158 4.21501 18.6021 4.28531 18.6021V18.6021Z" fill="#666666" fill-opacity="0.5"/>
<path d="M17.1431 10.1204H22.5C22.642 10.1204 22.7781 10.1762 22.8785 10.2755C22.9789 10.3748 23.0353 10.5096 23.0353 10.6501V10.6501C23.0354 10.7197 23.0217 10.7887 22.9948 10.853C22.968 10.9174 22.9286 10.9759 22.8789 11.0252C22.8291 11.0745 22.7701 11.1136 22.7051 11.1403C22.6401 11.1669 22.5704 11.1807 22.5 11.1807H17.1431C17.0011 11.1807 16.865 11.1249 16.7646 11.0255C16.6642 10.9262 16.6078 10.7915 16.6078 10.651V10.651C16.6077 10.5813 16.6214 10.5124 16.6483 10.448C16.6751 10.3836 16.7145 10.3251 16.7643 10.2758C16.814 10.2265 16.873 10.1874 16.9381 10.1608C17.0031 10.1341 17.0727 10.1204 17.1431 10.1204Z" fill="#666666" fill-opacity="0.5"/>
<path d="M17.1431 12.241H22.5C22.642 12.241 22.7781 12.2968 22.8785 12.3961C22.9789 12.4954 23.0353 12.6302 23.0353 12.7707V12.7707C23.0353 12.9111 22.9789 13.0459 22.8785 13.1452C22.7781 13.2445 22.642 13.3004 22.5 13.3004H17.1431C17.0011 13.3004 16.865 13.2445 16.7646 13.1452C16.6642 13.0459 16.6078 12.9111 16.6078 12.7707V12.7707C16.6078 12.6302 16.6642 12.4954 16.7646 12.3961C16.865 12.2968 17.0011 12.241 17.1431 12.241V12.241Z" fill="#666666" fill-opacity="0.5"/>
<path d="M4.28531 3.75952H17.1431C17.2851 3.75952 17.4213 3.81533 17.5216 3.91467C17.622 4.014 17.6784 4.14873 17.6784 4.28921V4.28921C17.6784 4.4297 17.622 4.56443 17.5216 4.66376C17.4213 4.7631 17.2851 4.81891 17.1431 4.81891H4.28531C4.14334 4.81891 4.00718 4.7631 3.90679 4.66376C3.8064 4.56443 3.75 4.4297 3.75 4.28921V4.28921C3.75 4.14873 3.8064 4.014 3.90679 3.91467C4.00718 3.81533 4.14334 3.75952 4.28531 3.75952V3.75952Z" fill="#666666" fill-opacity="0.5"/>
<path opacity="0.5" d="M19.2853 3.75952H25.7137C25.7841 3.7594 25.8538 3.77301 25.9189 3.79958C25.9839 3.82614 26.0431 3.86514 26.0929 3.91434C26.1427 3.96354 26.1822 4.02197 26.2092 4.0863C26.2361 4.15062 26.25 4.21958 26.25 4.28922C26.25 4.4297 26.1936 4.56443 26.0932 4.66377C25.9928 4.7631 25.8567 4.81891 25.7147 4.81891H19.2853C19.215 4.81891 19.1454 4.80521 19.0805 4.77859C19.0155 4.75197 18.9565 4.71295 18.9068 4.66377C18.8571 4.61458 18.8177 4.55619 18.7907 4.49192C18.7638 4.42766 18.75 4.35878 18.75 4.28922V4.28922C18.75 4.21966 18.7638 4.15078 18.7907 4.08651C18.8177 4.02225 18.8571 3.96385 18.9068 3.91467C18.9565 3.86548 19.0155 3.82646 19.0805 3.79984C19.1454 3.77322 19.215 3.75952 19.2853 3.75952Z" fill="#525252" fill-opacity="0.5"/>
<path opacity="0.5" d="M19.2853 18.6021H21.4284C21.4987 18.6021 21.5683 18.6158 21.6333 18.6424C21.6982 18.669 21.7573 18.708 21.807 18.7572C21.8567 18.8064 21.8961 18.8648 21.923 18.929C21.9499 18.9933 21.9637 19.0622 21.9637 19.1317V19.1317C21.9637 19.2722 21.9074 19.407 21.807 19.5063C21.7066 19.6056 21.5704 19.6614 21.4284 19.6614H19.2853C19.215 19.6614 19.1454 19.6477 19.0805 19.6211C19.0155 19.5945 18.9565 19.5555 18.9068 19.5063C18.8571 19.4571 18.8177 19.3987 18.7907 19.3344C18.7638 19.2702 18.75 19.2013 18.75 19.1317V19.1317C18.75 19.0622 18.7638 18.9933 18.7907 18.929C18.8177 18.8648 18.8571 18.8064 18.9068 18.7572C18.9565 18.708 19.0155 18.669 19.0805 18.6424C19.1454 18.6158 19.215 18.6021 19.2853 18.6021V18.6021Z" fill="#525252" fill-opacity="0.5"/>
<path opacity="0.5" d="M23.5716 18.6021H25.7147C25.785 18.6021 25.8546 18.6158 25.9195 18.6424C25.9845 18.669 26.0435 18.708 26.0932 18.7572C26.1429 18.8064 26.1823 18.8648 26.2093 18.929C26.2362 18.9933 26.25 19.0622 26.25 19.1317V19.1317C26.25 19.2013 26.2362 19.2702 26.2093 19.3344C26.1823 19.3987 26.1429 19.4571 26.0932 19.5063C26.0435 19.5555 25.9845 19.5945 25.9195 19.6211C25.8546 19.6477 25.785 19.6614 25.7147 19.6614H23.5716C23.4296 19.6614 23.2934 19.6056 23.193 19.5063C23.0926 19.407 23.0363 19.2722 23.0363 19.1317C23.0363 19.0622 23.0501 18.9933 23.077 18.929C23.1039 18.8648 23.1433 18.8064 23.193 18.7572C23.2427 18.708 23.3018 18.669 23.3667 18.6424C23.4317 18.6158 23.5013 18.6021 23.5716 18.6021V18.6021Z" fill="#525252" fill-opacity="0.5"/>
<path opacity="0.5" d="M22.5 16.4814H25.7147C25.8567 16.4814 25.9928 16.5373 26.0932 16.6366C26.1936 16.7359 26.25 16.8707 26.25 17.0111V17.0111C26.25 17.1516 26.1936 17.2864 26.0932 17.3857C25.9928 17.485 25.8567 17.5408 25.7147 17.5408H22.5C22.358 17.5408 22.2219 17.485 22.1215 17.3857C22.0211 17.2864 21.9647 17.1516 21.9647 17.0111V17.0111C21.9647 16.8707 22.0211 16.7359 22.1215 16.6366C22.2219 16.5373 22.358 16.4814 22.5 16.4814V16.4814Z" fill="#525252" fill-opacity="0.5"/>
<path opacity="0.5" d="M22.5 5.88013H25.7147C25.8567 5.88013 25.9928 5.93593 26.0932 6.03527C26.1936 6.13461 26.25 6.26934 26.25 6.40982V6.40982C26.25 6.5503 26.1936 6.68503 26.0932 6.78437C25.9928 6.88371 25.8567 6.93951 25.7147 6.93951H22.5C22.358 6.93951 22.2219 6.88371 22.1215 6.78437C22.0211 6.68503 21.9647 6.5503 21.9647 6.40982V6.40982C21.9647 6.26934 22.0211 6.13461 22.1215 6.03527C22.2219 5.93593 22.358 5.88013 22.5 5.88013Z" fill="#525252" fill-opacity="0.5"/>
<path opacity="0.5" d="M23.5716 14.3616H25.7147C25.8567 14.3616 25.9928 14.4174 26.0932 14.5167C26.1936 14.6161 26.25 14.7508 26.25 14.8913V14.8913C26.25 15.0317 26.1936 15.1665 26.0932 15.2658C25.9928 15.3652 25.8567 15.421 25.7147 15.421H23.5716C23.5012 15.4211 23.4315 15.4075 23.3664 15.3809C23.3014 15.3543 23.2422 15.3153 23.1924 15.2661C23.1426 15.2169 23.1031 15.1585 23.0762 15.0942C23.0492 15.0299 23.0353 14.9609 23.0353 14.8913C23.0353 14.8216 23.0492 14.7527 23.0762 14.6883C23.1031 14.624 23.1426 14.5656 23.1924 14.5164C23.2422 14.4672 23.3014 14.4282 23.3664 14.4016C23.4315 14.3751 23.5012 14.3615 23.5716 14.3616V14.3616Z" fill="#525252" fill-opacity="0.5"/>
<path opacity="0.5" d="M23.5716 7.99976H25.7147C25.7851 7.99976 25.8548 8.01349 25.9198 8.04016C25.9848 8.06684 26.0438 8.10594 26.0935 8.15523C26.1433 8.20451 26.1827 8.26301 26.2095 8.32739C26.2364 8.39176 26.2501 8.46074 26.25 8.53038C26.25 8.67086 26.1936 8.80559 26.0932 8.90493C25.9928 9.00426 25.8567 9.06007 25.7147 9.06007H23.5716C23.4296 9.06007 23.2934 9.00426 23.193 8.90493C23.0927 8.80559 23.0363 8.67086 23.0363 8.53038C23.0361 8.46074 23.0499 8.39176 23.0767 8.32739C23.1036 8.26301 23.143 8.20451 23.1927 8.15523C23.2424 8.10594 23.3015 8.06684 23.3665 8.04016C23.4315 8.01349 23.5012 7.99976 23.5716 7.99976V7.99976Z" fill="#525252" fill-opacity="0.5"/>
<path opacity="0.5" d="M24.6431 10.1204H25.7147C25.785 10.1204 25.8546 10.1341 25.9195 10.1607C25.9845 10.1873 26.0435 10.2263 26.0932 10.2755C26.1429 10.3247 26.1823 10.3831 26.2092 10.4473C26.2362 10.5116 26.25 10.5805 26.25 10.6501V10.6501C26.25 10.7196 26.2362 10.7885 26.2092 10.8528C26.1823 10.917 26.1429 10.9754 26.0932 11.0246C26.0435 11.0738 25.9845 11.1128 25.9195 11.1394C25.8546 11.166 25.785 11.1797 25.7147 11.1797H24.6431C24.5011 11.1797 24.365 11.1239 24.2646 11.0246C24.1642 10.9253 24.1078 10.7905 24.1078 10.6501C24.1078 10.5096 24.1642 10.3748 24.2646 10.2755C24.365 10.1762 24.5011 10.1204 24.6431 10.1204V10.1204Z" fill="#525252" fill-opacity="0.5"/>
<path opacity="0.5" d="M24.6431 12.241H25.7147C25.785 12.241 25.8546 12.2547 25.9195 12.2813C25.9845 12.3079 26.0435 12.3469 26.0932 12.3961C26.1429 12.4453 26.1823 12.5037 26.2092 12.568C26.2362 12.6322 26.25 12.7011 26.25 12.7707V12.7707C26.25 12.8402 26.2362 12.9091 26.2092 12.9734C26.1823 13.0376 26.1429 13.096 26.0932 13.1452C26.0435 13.1944 25.9845 13.2334 25.9195 13.26C25.8546 13.2867 25.785 13.3004 25.7147 13.3004H24.6431C24.5011 13.3004 24.365 13.2445 24.2646 13.1452C24.1642 13.0459 24.1078 12.9111 24.1078 12.7707V12.7707C24.1078 12.6302 24.1642 12.4954 24.2646 12.3961C24.365 12.2968 24.5011 12.241 24.6431 12.241V12.241Z" fill="#525252" fill-opacity="0.5"/>
<path opacity="0.5" d="M16.0716 20.7227H25.7147C25.8567 20.7227 25.9928 20.7785 26.0932 20.8778C26.1936 20.9771 26.25 21.1119 26.25 21.2524V21.2524C26.25 21.3928 26.1936 21.5276 26.0932 21.6269C25.9928 21.7262 25.8567 21.782 25.7147 21.782H16.0716C15.9296 21.782 15.7934 21.7262 15.693 21.6269C15.5927 21.5276 15.5363 21.3928 15.5363 21.2524V21.2524C15.5363 21.1119 15.5927 20.9771 15.693 20.8778C15.7934 20.7785 15.9296 20.7227 16.0716 20.7227Z" fill="#525252" fill-opacity="0.5"/>
<path opacity="0.5" d="M11.7853 20.7227H13.9284C14.0704 20.7227 14.2066 20.7785 14.307 20.8778C14.4074 20.9771 14.4638 21.1119 14.4638 21.2524V21.2524C14.4638 21.3928 14.4074 21.5276 14.307 21.6269C14.2066 21.7262 14.0704 21.782 13.9284 21.782H11.7853C11.6433 21.782 11.5072 21.7262 11.4068 21.6269C11.3064 21.5276 11.25 21.3928 11.25 21.2524V21.2524C11.25 21.1119 11.3064 20.9771 11.4068 20.8778C11.5072 20.7785 11.6433 20.7227 11.7853 20.7227V20.7227Z" fill="#525252" fill-opacity="0.5"/>
<path opacity="0.5" d="M20.3569 24.9629H25.7138C25.8557 24.9629 25.9919 25.0187 26.0923 25.118C26.1927 25.2174 26.2491 25.3521 26.2491 25.4926V25.4926C26.2491 25.5621 26.2352 25.631 26.2083 25.6953C26.1814 25.7596 26.142 25.8179 26.0923 25.8671C26.0426 25.9163 25.9836 25.9553 25.9186 25.982C25.8537 26.0086 25.7841 26.0223 25.7138 26.0223H20.3569C20.2866 26.0223 20.217 26.0086 20.152 25.982C20.0871 25.9553 20.0281 25.9163 19.9784 25.8671C19.9286 25.8179 19.8892 25.7596 19.8623 25.6953C19.8354 25.631 19.8216 25.5621 19.8216 25.4926C19.8216 25.3521 19.878 25.2174 19.9784 25.118C20.0787 25.0187 20.2149 24.9629 20.3569 24.9629Z" fill="#525252" fill-opacity="0.5"/>
<path opacity="0.5" d="M11.7853 24.9629H18.2138C18.3557 24.9629 18.4919 25.0187 18.5923 25.118C18.6927 25.2174 18.7491 25.3521 18.7491 25.4926V25.4926C18.7491 25.5621 18.7352 25.631 18.7083 25.6953C18.6814 25.7596 18.642 25.8179 18.5923 25.8671C18.5426 25.9163 18.4836 25.9553 18.4186 25.982C18.3537 26.0086 18.284 26.0223 18.2138 26.0223H11.7853C11.6435 26.0223 11.5075 25.9666 11.4071 25.8675C11.3068 25.7683 11.2502 25.6338 11.25 25.4935V25.4935C11.2499 25.4239 11.2636 25.3549 11.2905 25.2905C11.3173 25.2261 11.3567 25.1676 11.4065 25.1184C11.4562 25.0691 11.5152 25.03 11.5802 25.0033C11.6452 24.9766 11.7149 24.9629 11.7853 24.9629Z" fill="#525252" fill-opacity="0.5"/>
<path opacity="0.5" d="M11.7853 10.1204H15C15.142 10.1204 15.2781 10.1762 15.3785 10.2755C15.4789 10.3748 15.5353 10.5096 15.5353 10.6501V10.6501C15.5354 10.7197 15.5217 10.7887 15.4948 10.853C15.468 10.9174 15.4286 10.9759 15.3789 11.0252C15.3291 11.0745 15.2701 11.1136 15.2051 11.1403C15.1401 11.1669 15.0704 11.1807 15 11.1807H11.7853C11.6433 11.1807 11.5072 11.1249 11.4068 11.0255C11.3064 10.9262 11.25 10.7915 11.25 10.651V10.651C11.2499 10.5813 11.2636 10.5124 11.2905 10.448C11.3173 10.3836 11.3567 10.3251 11.4065 10.2758C11.4562 10.2265 11.5152 10.1874 11.5802 10.1608C11.6452 10.1341 11.7149 10.1204 11.7853 10.1204V10.1204Z" fill="#525252" fill-opacity="0.5"/>
<path opacity="0.5" d="M11.7853 12.241H15C15.142 12.241 15.2781 12.2968 15.3785 12.3961C15.4789 12.4954 15.5353 12.6302 15.5353 12.7707V12.7707C15.5353 12.9111 15.4789 13.0459 15.3785 13.1452C15.2781 13.2445 15.142 13.3004 15 13.3004H11.7853C11.6433 13.3004 11.5072 13.2445 11.4068 13.1452C11.3064 13.0459 11.25 12.9111 11.25 12.7707V12.7707C11.25 12.6302 11.3064 12.4954 11.4068 12.3961C11.5072 12.2968 11.6433 12.241 11.7853 12.241V12.241Z" fill="#525252" fill-opacity="0.5"/>
</svg>
