<svg width="30" height="30" viewBox="0 0 30 30" fill="none" xmlns="http://www.w3.org/2000/svg">
<g clip-path="url(#clip0_500_3)">
<path d="M15 0.0488281C6.71625 0.0488281 0 6.69458 0 14.8914C0 23.0882 6.71625 29.7339 15 29.7339C23.2837 29.7339 30 23.0882 30 14.8914C30 6.69458 23.2837 0.0488281 15 0.0488281ZM16.25 19.9094V16.1283H19.9925C19.9188 17.542 19.7275 18.8989 19.4225 20.184C18.3938 20.0356 17.33 19.9514 16.25 19.9094V19.9094ZM18.6962 22.5835C18.0725 24.2286 17.2475 25.672 16.25 26.8582V22.3807C17.0825 22.4153 17.8987 22.4809 18.6962 22.5835ZM16.25 13.6545V9.92531C17.335 9.88325 18.4013 9.79791 19.435 9.64824C19.7325 10.9185 19.9213 12.2593 19.9925 13.6545H16.25ZM16.25 7.45278V2.92457C17.2575 4.12311 18.0887 5.58386 18.7137 7.2487C17.9112 7.3526 17.0888 7.41815 16.25 7.45278ZM19.6288 3.4119C21.175 4.02539 22.5713 4.93079 23.7413 6.06624C22.9388 6.35567 22.1025 6.61294 21.2175 6.81703C20.7875 5.59005 20.2488 4.45459 19.6288 3.4119V3.4119ZM10.5775 20.184C10.2725 18.8989 10.08 17.542 10.0075 16.1283H13.75V19.9094C12.6687 19.9514 11.6075 20.0356 10.5775 20.184ZM13.75 22.3807V26.8582C12.7525 25.672 11.9275 24.2286 11.3038 22.5835C12.1013 22.4809 12.9175 22.4153 13.75 22.3807ZM10.0075 13.6545C10.0787 12.2593 10.2662 10.9185 10.565 9.64824C11.5987 9.79791 12.665 9.88325 13.75 9.92531V13.6545H10.0075ZM11.2875 7.2487C11.9125 5.58386 12.7437 4.12311 13.75 2.92457V7.45278C12.9112 7.41815 12.0887 7.3526 11.2875 7.2487ZM8.78125 6.81579C7.89625 6.61171 7.06 6.35444 6.25875 6.06501C7.43 4.92955 8.825 4.02416 10.3712 3.41066C9.75125 4.45459 9.2125 5.59005 8.78125 6.81579V6.81579ZM8.095 9.18813C7.765 10.6118 7.5525 12.1072 7.48 13.6545H2.56375C2.77 11.6037 3.4875 9.70019 4.585 8.06628C5.685 8.51279 6.855 8.89498 8.095 9.18813ZM8.10625 20.6441C6.87125 20.936 5.70625 21.3145 4.61 21.7573C3.4975 20.1147 2.77125 18.1963 2.56375 16.1283H7.48125C7.55375 17.6929 7.77 19.2056 8.10625 20.6441ZM8.7975 23.0152C9.225 24.2224 9.7575 25.3418 10.3688 26.3696C8.84 25.7635 7.46125 24.8717 6.29875 23.7536C7.09375 23.4704 7.9225 23.2156 8.7975 23.0152V23.0152ZM21.2025 23.0152C22.0775 23.2168 22.905 23.4691 23.7013 23.7536C22.5375 24.8705 21.1588 25.7635 19.63 26.3708C20.2413 25.3418 20.7737 24.2224 21.2025 23.0152ZM21.8937 20.6441C22.2312 19.2056 22.4463 17.6929 22.52 16.1283H27.4375C27.2288 18.1963 26.5025 20.1147 25.39 21.7573C24.2938 21.3145 23.1275 20.936 21.8937 20.6441V20.6441ZM22.52 13.6545C22.4475 12.1072 22.2338 10.6118 21.905 9.18813C23.145 8.89498 24.3163 8.51279 25.4163 8.06628C26.5125 9.70019 27.23 11.6037 27.4362 13.6545H22.52Z" fill="#525252" fill-opacity="0.5"/>
</g>
<defs>
<clipPath id="clip0_500_3">
<rect width="30" height="29.6851" fill="white" transform="translate(0 0.0488281)"/>
</clipPath>
</defs>
</svg>
